<?xml version="1.0" encoding="UTF-8" standalone="no"?>
<!-- Created with Inkscape (http://www.inkscape.org/) -->

<svg
   xmlns:dc="http://purl.org/dc/elements/1.1/"
   xmlns:cc="http://creativecommons.org/ns#"
   xmlns:rdf="http://www.w3.org/1999/02/22-rdf-syntax-ns#"
   xmlns:svg="http://www.w3.org/2000/svg"
   xmlns="http://www.w3.org/2000/svg"
   xmlns:sodipodi="http://sodipodi.sourceforge.net/DTD/sodipodi-0.dtd"
   xmlns:inkscape="http://www.inkscape.org/namespaces/inkscape"
   width="400"
   height="185"
   viewBox="0 0 399.99998 184.99999"
   id="svg4952"
   version="1.1"
   inkscape:version="0.91 r13725"
   sodipodi:docname="arlin_logo_black.svg">
  <defs
     id="defs4954" />
  <sodipodi:namedview
     id="base"
     pagecolor="#ffffff"
     bordercolor="#666666"
     borderopacity="1.0"
     inkscape:pageopacity="0.0"
     inkscape:pageshadow="2"
     inkscape:zoom="0.98994949"
     inkscape:cx="166.72042"
     inkscape:cy="91.073144"
     inkscape:document-units="px"
     inkscape:current-layer="layer1"
     showgrid="false"
     units="px"
     inkscape:window-width="1366"
     inkscape:window-height="706"
     inkscape:window-x="-8"
     inkscape:window-y="-8"
     inkscape:window-maximized="1" />
  <metadata
     id="metadata4957">
    <rdf:RDF>
      <cc:Work
         rdf:about="">
        <dc:format>image/svg+xml</dc:format>
        <dc:type
           rdf:resource="http://purl.org/dc/dcmitype/StillImage" />
        <dc:title></dc:title>
      </cc:Work>
    </rdf:RDF>
  </metadata>
  <g
     inkscape:label="Layer 1"
     inkscape:groupmode="layer"
     id="layer1"
     transform="translate(0,-867.36222)">
    <g
       id="g5532"
       transform="matrix(1.0876832,0,0,1.0876832,-107.65897,503.15898)"
       style="fill:#000000">
      <g
         transform="matrix(1.9392738,0,0,-1.9392738,-2331.596,3995.4622)"
         id="g4499"
         style="fill:#000000">
        <rect
           style="opacity:1;fill:#000000;fill-opacity:1;stroke:none;stroke-width:1;stroke-miterlimit:4;stroke-dasharray:none;stroke-dashoffset:0.25332379;stroke-opacity:1"
           id="rect4378-1"
           width="6.6863942"
           height="74.612488"
           x="375.70242"
           y="-2243.7971"
           transform="matrix(-0.70710678,0.70710678,-0.70710678,-0.70710678,0,0)" />
        <rect
           style="opacity:1;fill:#000000;fill-opacity:1;stroke:none;stroke-width:1;stroke-miterlimit:4;stroke-dasharray:none;stroke-dashoffset:0.25332379;stroke-opacity:1"
           id="rect4380-5"
           width="6.6863937"
           height="74.612488"
           x="2208.8044"
           y="361.69656"
           transform="matrix(0.70710678,0.70710678,-0.70710678,0.70710678,0,0)" />
        <rect
           y="-2243.7971"
           x="390.00296"
           height="74.612488"
           width="6.6863942"
           id="rect4382-5"
           style="opacity:1;fill:#000000;fill-opacity:1;stroke:none;stroke-width:1;stroke-miterlimit:4;stroke-dasharray:none;stroke-dashoffset:0.25332379;stroke-opacity:1"
           transform="matrix(-0.70710678,0.70710678,-0.70710678,-0.70710678,0,0)" />
        <rect
           y="361.69656"
           x="2223.1047"
           height="74.612488"
           width="6.6863937"
           id="rect4384-7"
           style="opacity:1;fill:#000000;fill-opacity:1;stroke:none;stroke-width:1;stroke-miterlimit:4;stroke-dasharray:none;stroke-dashoffset:0.25332379;stroke-opacity:1"
           transform="matrix(0.70710678,0.70710678,-0.70710678,0.70710678,0,0)" />
        <path
           inkscape:connector-curvature="0"
           style="opacity:1;fill:#000000;fill-opacity:1;stroke:none;stroke-width:1;stroke-miterlimit:4;stroke-dasharray:none;stroke-dashoffset:0.25332379;stroke-opacity:1"
           d="m 1311.038,1842.3614 -4.7265,-4.7265 -4.7285,4.7265 4.7265,4.7285 4.7285,-4.7285 z"
           id="path4386-6" />
      </g>
      <path
         id="path4523"
         style="font-style:normal;font-variant:normal;font-weight:normal;font-stretch:normal;font-size:medium;line-height:121.00000381%;font-family:Gisha;-inkscape-font-specification:Gisha;letter-spacing:1px;word-spacing:0px;fill:#000000;fill-opacity:1;stroke:none;stroke-width:1px;stroke-linecap:butt;stroke-linejoin:miter;stroke-opacity:1"
         d="m 307.14403,466.717 -14.12535,0 0,-13.78116 -0.34453,0 q -9.21617,15.84828 -27.13158,15.84828 -13.17801,0 -20.67158,-6.97663 -7.40704,-6.97663 -7.40704,-18.51824 0,-24.71994 29.11218,-28.76798 l 26.44255,-3.70352 q 0,-22.4804 -18.17373,-22.4804 -15.93449,0 -28.76798,10.85257 l 0,-14.4702 q 13.00591,-8.2685 29.97365,-8.2685 31.09341,0 31.09341,32.90223 l 0,57.36355 z m -14.12535,-44.61627 -21.27441,2.92859 q -9.81901,1.37808 -14.81473,4.9095 -4.99571,3.44521 -4.99571,12.31687 0,6.45968 4.56498,10.59393 4.65119,4.04837 12.31687,4.04837 10.50805,0 17.31225,-7.32115 6.89075,-7.40736 6.89075,-18.69067 l 0,-8.78544 z"
         inkscape:connector-curvature="0" />
      <path
         id="path4525"
         style="font-style:normal;font-variant:normal;font-weight:normal;font-stretch:normal;font-size:medium;line-height:121.00000381%;font-family:Gisha;-inkscape-font-specification:Gisha;letter-spacing:1px;word-spacing:0px;fill:#000000;fill-opacity:1;stroke:none;stroke-width:1px;stroke-linecap:butt;stroke-linejoin:miter;stroke-opacity:1"
         d="m 357.25805,392.81613 q -3.70352,-2.84238 -10.68015,-2.84238 -9.04375,0 -15.15924,8.52713 -6.02928,8.52681 -6.02928,23.25533 l 0,44.96079 -14.12536,0 0,-88.19865 14.12536,0 0,18.17372 0.34452,0 q 3.0148,-9.30207 9.21618,-14.47021 6.20138,-5.25402 13.86705,-5.25402 5.51266,0 8.44092,1.20598 l 0,14.64231 z"
         inkscape:connector-curvature="0" />
      <path
         inkscape:connector-curvature="0"
         id="path4547"
         d="m 292.03276,410.99114 22.98923,-3.36612 0.85952,11.53059 -22.9121,2.9879 -0.93698,-11.06518 z"
         style="fill:#000000;fill-opacity:1;fill-rule:evenodd;stroke:none;stroke-width:1px;stroke-linecap:butt;stroke-linejoin:miter;stroke-opacity:1" />
      <g
         transform="matrix(3.2410246,0,0,3.2410246,-3989.5385,-5446.3993)"
         id="g4902"
         style="fill:#000000">
        <path
           inkscape:connector-curvature="0"
           d="m 1347.5038,1816.8583 q 0,3.7471 2.8967,3.7471 1.1693,0 2.0994,-0.2923 l 0,3.9332 q -0.5049,0.1328 -1.3553,0.2391 -0.8239,0.1329 -1.754,0.1329 -1.3022,0 -2.4449,-0.4252 -1.1428,-0.4252 -1.9932,-1.3022 -0.8238,-0.877 -1.3287,-2.1792 -0.4784,-1.3287 -0.4784,-3.0827 l 0,-33.4584 4.3584,0 0,32.6877 z"
           style="font-style:normal;font-variant:normal;font-weight:normal;font-stretch:normal;font-size:medium;line-height:121.00000381%;font-family:Gisha;-inkscape-font-specification:Gisha;letter-spacing:1px;word-spacing:0px;fill:#000000;fill-opacity:1;stroke:none;stroke-width:1px;stroke-linecap:butt;stroke-linejoin:miter;stroke-opacity:1"
           id="path4527" />
        <path
           inkscape:connector-curvature="0"
           style="font-style:normal;font-variant:normal;font-weight:normal;font-stretch:normal;font-size:medium;line-height:121.00000381%;font-family:Gisha;-inkscape-font-specification:Gisha;letter-spacing:1px;word-spacing:0px;fill:#000000;fill-opacity:1;stroke:none;stroke-width:1px;stroke-linecap:butt;stroke-linejoin:miter;stroke-opacity:1"
           d="m 1352.2871,1797.2461 0,19.6113 c 0,2.4981 -0.9653,3.7481 -2.8965,3.7481 -0.7795,0 -1.4795,-0.098 -2.0996,-0.293 l 0,3.9336 c 0.3366,0.088 0.7886,0.1694 1.3555,0.2402 0.5493,0.089 1.1338,0.1328 1.7539,0.1328 0.8681,0 1.6835,-0.1423 2.4453,-0.4257 0.7619,-0.2835 1.4272,-0.7181 1.9941,-1.3028 0.5492,-0.5846 0.9915,-1.3115 1.3282,-2.1797 0.3188,-0.8858 0.4785,-1.9127 0.4785,-3.082 l 0,-20.3828 -4.3594,0 z"
           id="path4529" />
        <path
           inkscape:connector-curvature="0"
           d="m 1374.958,1824.4542 -4.3584,0 0,-15.52 c 0,-5.7757 -2.1083,-8.6636 -6.3249,-8.6636 -2.1792,0 -3.9863,0.8238 -5.4214,2.4715 -1.4173,1.6299 -2.126,3.694 -2.126,6.1921 l 0,15.6841 -6.0836,0 1.7252,-3.1054 0,-24.2719 4.3584,0 0,4.5178 0.1063,0 c 2.0551,-3.4371 5.0316,-5.1556 8.9293,-5.1556 2.9764,0 5.253,0.9656 6.8299,2.8967 1.5768,1.9134 2.3652,4.6861 2.3652,8.3181 z"
           style="font-style:normal;font-variant:normal;font-weight:normal;font-stretch:normal;font-size:medium;line-height:121.00000381%;font-family:Gisha;-inkscape-font-specification:Gisha;letter-spacing:1px;word-spacing:0px;fill:#000000;fill-opacity:1;stroke:none;stroke-width:1px;stroke-linecap:butt;stroke-linejoin:miter;stroke-opacity:1"
           id="path4531"
           sodipodi:nodetypes="ccsscscccccccscsc" />
        <circle
           style="opacity:1;fill:#000000;fill-opacity:1;stroke:none;stroke-width:1.79999995;stroke-miterlimit:4;stroke-dasharray:none;stroke-dashoffset:0.25332379;stroke-opacity:1"
           id="path4561"
           cx="1354.3772"
           cy="1790.1708"
           r="2.2692978" />
      </g>
    </g>
  </g>
</svg>
