<svg xmlns="http://www.w3.org/2000/svg" xmlns:svg="http://www.w3.org/2000/svg" id="svg2" width="1000" height="800" version="1.1"><metadata id="metadata7"/><g id="layer1" transform="translate(0,-252.36218)"><rect style="fill:#edf7f2;fill-opacity:1;stroke:none" id="rect3801-4" width="900" height="600" x="50" y="402.362"/><path style="fill:#4bb5c1;fill-opacity:1;stroke:none" id="rect3801-4-2" d="m 100,852.36218 800,0 0,100 -800,0 z"/><text style="font-size:40px;font-style:normal;font-weight:400;line-height:125%;letter-spacing:0;word-spacing:0;fill:#000;fill-opacity:1;stroke:none;font-family:Sans" id="text3004-4" x="500.469" y="917.333" xml:space="preserve"><tspan id="tspan3006-1" x="500.469" y="917.333" style="font-size:40px;font-style:normal;font-variant:normal;font-weight:400;font-stretch:normal;text-align:center;text-anchor:middle;fill:#000;fill-opacity:1;font-family:Meslo LG S for Powerline;-inkscape-font-specification:Meslo LG S for Powerline">arlin</tspan></text><path style="fill:#7fc6bc;fill-opacity:1;stroke:none" id="rect3801-4-2-1" d="m 100,742.36218 260,0 0,100 -260,0 z"/><path style="fill:#7fc6bc;fill-opacity:1;stroke:none" id="rect3801-4-2-1-5" d="m 370,742.36218 260,0 0,100 -260,0 z"/><path style="fill:#7fc6bc;fill-opacity:1;stroke:none" id="rect3801-4-2-1-5-4" d="m 640,742.36218 260,0 0,100 -260,0 z"/><text style="font-size:40px;font-style:normal;font-weight:400;line-height:125%;letter-spacing:0;word-spacing:0;fill:#000;fill-opacity:1;stroke:none;font-family:Sans" id="text3004-4-2" x="230.771" y="807.274" xml:space="preserve"><tspan id="tspan3006-1-4" x="230.771" y="807.274" style="font-size:40px;font-style:normal;font-variant:normal;font-weight:400;font-stretch:normal;text-align:center;text-anchor:middle;fill:#000;fill-opacity:1;font-family:Meslo LG S for Powerline;-inkscape-font-specification:Meslo LG S for Powerline">docs</tspan></text><text style="font-size:40px;font-style:normal;font-weight:400;line-height:125%;letter-spacing:0;word-spacing:0;fill:#000;fill-opacity:1;stroke:none;font-family:Sans" id="text3004-4-2-6" x="500.566" y="803.261" xml:space="preserve"><tspan id="tspan3006-1-4-2" x="500.566" y="803.261" style="font-size:40px;font-style:normal;font-variant:normal;font-weight:400;font-stretch:normal;text-align:center;text-anchor:middle;fill:#000;fill-opacity:1;font-family:Meslo LG S for Powerline;-inkscape-font-specification:Meslo LG S for Powerline">design</tspan></text><text style="font-size:40px;font-style:normal;font-weight:400;line-height:125%;letter-spacing:0;word-spacing:0;fill:#000;fill-opacity:1;stroke:none;font-family:Sans" id="text3004-4-2-6-3" x="769.014" y="807.333" xml:space="preserve"><tspan id="tspan3006-1-4-2-9" x="769.014" y="807.333" style="font-size:40px;font-style:normal;font-variant:normal;font-weight:400;font-stretch:normal;text-align:center;text-anchor:middle;fill:#000;fill-opacity:1;font-family:Meslo LG S for Powerline;-inkscape-font-specification:Meslo LG S for Powerline">slide</tspan></text><path style="fill:#96ca2d;fill-opacity:1;stroke:none" id="rect3801-4-2-19" d="m 100,532.36218 800,0 0,200 -800,0 z"/><text style="font-size:40px;font-style:normal;font-weight:400;line-height:125%;letter-spacing:0;word-spacing:0;fill:#000;fill-opacity:1;stroke:none;font-family:Sans" id="text3004-4-5" x="500.469" y="697.333" xml:space="preserve"><tspan id="tspan3006-1-9" x="500.469" y="697.333" style="font-size:40px;font-style:normal;font-variant:normal;font-weight:400;font-stretch:normal;text-align:center;text-anchor:middle;fill:#000;fill-opacity:1;font-family:Meslo LG S for Powerline;-inkscape-font-specification:Meslo LG S for Powerline">test</tspan></text><path style="fill:#b5e655;fill-opacity:1;stroke:none" id="rect3801-4-2-1-8" d="m 135,442.36218 360,0 0,200 -360,0 z"/><path style="fill:#b5e655;fill-opacity:1;stroke:none" id="rect3801-4-2-1-8-4" d="m 505,442.36218 360,0 0,200 -360,0 z"/><text style="font-size:40px;font-style:normal;font-weight:400;line-height:125%;letter-spacing:0;word-spacing:0;fill:#000;fill-opacity:1;stroke:none;font-family:Sans" id="text3004-4-2-6-34" x="314.971" y="557.274" xml:space="preserve"><tspan id="tspan3006-1-4-2-5" x="314.971" y="557.274" style="font-size:40px;font-style:normal;font-variant:normal;font-weight:400;font-stretch:normal;text-align:center;text-anchor:middle;fill:#000;fill-opacity:1;font-family:Meslo LG S for Powerline;-inkscape-font-specification:Meslo LG S for Powerline">backend</tspan></text><text style="font-size:40px;font-style:normal;font-weight:400;line-height:125%;letter-spacing:0;word-spacing:0;fill:#000;fill-opacity:1;stroke:none;font-family:Sans" id="text3004-4-2-6-34-9" x="684.971" y="557.274" xml:space="preserve"><tspan id="tspan3006-1-4-2-5-8" x="684.971" y="557.274" style="font-size:40px;font-style:normal;font-variant:normal;font-weight:400;font-stretch:normal;text-align:center;text-anchor:middle;fill:#000;fill-opacity:1;font-family:Meslo LG S for Powerline;-inkscape-font-specification:Meslo LG S for Powerline">frontend</tspan></text><g id="g3043" transform="translate(-28.080208,0)"><text id="text3004" x="283.906" y="342.333" xml:space="preserve" style="font-size:40px;font-style:normal;font-weight:400;line-height:125%;letter-spacing:0;word-spacing:0;fill:#000;fill-opacity:1;stroke:none;font-family:Sans"><tspan style="font-size:40px;font-style:normal;font-variant:normal;font-weight:400;font-stretch:normal;font-family:Meslo LG S for Powerline;-inkscape-font-specification:Meslo LG S for Powerline" id="tspan3006" x="283.906" y="342.333">asde-michi =</tspan></text><g id="layer1-8" transform="matrix(0.4425006,0,0,0.4425006,592.65627,-94.000084)"><rect style="fill:#009688;fill-opacity:1;stroke:none" id="rect4378-1" width="14.104" height="157.381" x="-759.475" y="557.826" transform="matrix(-0.70710678,-0.70710678,-0.70710678,0.70710678,0,0)"/><rect style="fill:#00bcd4;fill-opacity:1;stroke:none" id="rect4380-5" width="14.104" height="157.381" x="-631.636" y="-789.018" transform="matrix(0.70710678,-0.70710678,-0.70710678,-0.70710678,0,0)"/><rect id="rect4382-5" width="14.104" height="157.381" x="-729.311" y="557.826" transform="matrix(-0.70710678,-0.70710678,-0.70710678,0.70710678,0,0)" style="fill:#009688;fill-opacity:1;stroke:none"/><rect id="rect4384-7" width="14.104" height="157.381" x="-601.472" y="-789.018" transform="matrix(0.70710678,-0.70710678,-0.70710678,-0.70710678,0,0)" style="fill:#00bcd4;fill-opacity:1;stroke:none"/><path style="fill:#009688;fill-opacity:1;stroke:none" id="path4386-6" d="m 121.69597,952.36394 -9.96968,9.96968 -9.97389,-9.96968 9.96968,-9.9739 9.97389,9.9739 z"/><path style="font-size:medium;font-style:normal;font-variant:normal;font-weight:400;font-stretch:normal;line-height:121.00000381%;letter-spacing:1px;word-spacing:0;fill:#607d8b;fill-opacity:1;stroke:none;font-family:Gisha;-inkscape-font-specification:Gisha" id="path4523" d="m 287.8437,862.55404 0,117.9375 c 0,4.12215 0.56319,7.75237 1.6875,10.875 1.18659,3.06035 2.75146,5.62643 4.6875,7.6875 1.99856,2.06106 4.34551,3.59446 7.03125,4.59386 2.6855,0.9992 5.56465,1.4999 8.625,1.4999 0.60092,0 1.1992,-0.01 1.78125,-0.031 0.58201,0.023 1.1803,0.031 1.78125,0.031 0.29745,0 0.58106,-0.022 0.875,-0.031 l -0.0312,0.031 21.4375,0 0,-55.31251 c 0,-8.80632 2.50373,-16.06676 7.5,-21.8125 5.05903,-5.80848 11.44286,-8.71875 19.125,-8.71875 14.86439,0 22.28125,10.17071 22.28125,30.53125 l 0,54.71881 15.375,0 0,-58.65631 c 0,-12.80356 -2.7852,-22.56736 -8.34375,-29.3125 -5.5589,-6.80753 -13.57007,-10.21875 -24.0625,-10.21875 -13.7402,0 -24.25534,6.071 -31.5,18.1875 l -0.375,0 0,-15.9375 -15.34375,0 0,0.0312 -0.28125,0 0,69.125 c 0,8.00363 -2.84554,12.36372 -8.46875,13.09375 -5.60267,-0.74144 -8.40625,-5.10483 -8.40625,-13.09375 l 0,-115.21875 -15.375,0 z m 39.59375,13.15625 c -4.41814,0 -8,3.58185 -8,8 0,4.41814 3.58186,8 8,8 4.41814,0 8,-3.58186 8,-8 0,-4.41815 -3.58186,-8 -8,-8 z m -134.84375,30.6875 c -12.30368,0 -23.16288,3.00432 -32.59375,9 l 0,15.71875 c 9.30585,-7.86944 19.7268,-11.8125 31.28125,-11.8125 13.17818,0 19.78125,8.16771 19.78125,24.46875 l -28.78125,4.03125 c -21.10989,2.93532 -31.65625,13.35628 -31.65625,31.28125 0,8.36908 2.69149,15.09734 8.0625,20.15625 5.43375,5.05906 12.91308,7.56246 22.46875,7.56246 12.99086,0 22.8484,-5.7268 29.53125,-17.21871 l 0.375,0 0,15.00011 15.34375,0 0,-50.50011 4.5,-0.59375 0,51.09386 15.34375,0 0,-48.90636 c 0,-10.67998 2.19053,-19.12952 6.5625,-25.3125 4.43447,-6.18321 9.94217,-9.28125 16.5,-9.28125 5.05891,0 8.93949,1.03267 11.625,3.09375 l 0,-15.90625 c -2.12335,-0.87448 -5.19015,-1.3125 -9.1875,-1.3125 -5.55855,0 -10.59699,1.90894 -15.09375,5.71875 -4.49675,3.74752 -7.84515,8.97361 -10.03125,15.71875 l -0.375,0 0,-19.75 -15.34375,0 0,32.25 -4.5,0.65625 c -0.19669,-23.44003 -11.46441,-35.15625 -33.8125,-35.15625 z m 18.40625,49.65625 0,0.0312 0.0625,0 0,9.5 c 0,8.18177 -2.50336,14.9725 -7.5,20.34375 -4.93387,5.30873 -11.22413,7.96875 -18.84375,7.96875 -5.55855,0 -10.00232,-1.47068 -13.375,-4.40625 -3.31017,-2.99783 -4.96875,-6.84719 -4.96875,-11.53125 0,-6.43303 1.815,-10.90805 5.4375,-13.40625 3.62251,-2.56071 8.97376,-4.31322 16.09375,-5.3125 l 23.09375,-3.1875 z"/></g></g></g></svg>