<svg xmlns="http://www.w3.org/2000/svg" width="800" height="1200" viewBox="0 0 800 1200"><path fill="#ececec" d="M0 0h800v1200H0z"/><g transform="translate(18.98 67.96)"><path fill="#fff" stroke="#000" stroke-dashoffset=".253" stroke-width="3" d="M38.19 835.032h297.903v197.902H38.19z"/><path fill="none" stroke="#000" stroke-width="1.132" d="M40.292 1023.483h293.702"/><path fill="none" stroke="#000" stroke-dashoffset=".253" stroke-width=".779" d="M135.708 843.92h102.87v15.927h-102.87z"/><text x="76.972" y="853.918" font-family="sans-serif" font-size="14.329" letter-spacing="0" transform="matrix(1.00558 0 0 .99445 88.57 7.887)" word-spacing="0" style="line-height:125%"><tspan x="76.972" y="853.918">LOGO</tspan></text><path fill="#ccc" stroke="#000" stroke-dashoffset=".253" stroke-width=".593" d="M126.872 891.82h119.315v19.17H126.872zM126.94 918.73h119.314v19.17H126.94z"/><text x="37.41" y="864.243" font-family="sans-serif" font-size="6.087" letter-spacing="0" transform="translate(88.57 21.62)" word-spacing="0" style="line-height:125%"><tspan x="37.41" y="864.243">Recent Questions</tspan></text><text x="84.838" y="884.01" fill="red" stroke-width="1.568" font-family="Segoe Print" font-size="12.765" letter-spacing="0" transform="translate(88.57 21.62)" word-spacing="0" style="line-height:125%;-inkscape-font-specification:'Segoe Print'"><tspan x="84.838" y="884.01" font-family="Arial Rounded MT Bold" style="-inkscape-font-specification:'Arial Rounded MT Bold, '">Q #1</tspan></text><text x="84.905" y="910.92" fill="red" stroke-width="1.568" font-family="Segoe Print" font-size="12.765" letter-spacing="0" transform="translate(88.57 21.62)" word-spacing="0" style="line-height:125%;-inkscape-font-specification:'Segoe Print'"><tspan x="84.905" y="910.92" font-family="Arial Rounded MT Bold" style="-inkscape-font-specification:'Arial Rounded MT Bold, '">Q #2</tspan></text><path fill="none" stroke="#000" stroke-width="1.908" d="M38.302 877.09H334.91"/><path fill="#ccc" stroke="#000" stroke-dashoffset=".253" stroke-width=".593" d="M126.87 944.514h119.316v19.172H126.87zM126.938 971.424h119.315v19.172H126.938z"/><text style="line-height:125%;-inkscape-font-specification:'Segoe Print'" x="84.838" y="936.706" fill="red" stroke-width="1.568" font-family="Segoe Print" font-size="12.765" letter-spacing="0" transform="translate(88.57 21.62)" word-spacing="0"><tspan style="-inkscape-font-specification:'Arial Rounded MT Bold, '" x="84.838" y="936.706" font-family="Arial Rounded MT Bold">Q #3</tspan></text><text style="line-height:125%;-inkscape-font-specification:'Segoe Print'" x="84.905" y="963.615" fill="red" stroke-width="1.568" font-family="Segoe Print" font-size="12.765" letter-spacing="0" transform="translate(88.57 21.62)" word-spacing="0"><tspan style="-inkscape-font-specification:'Arial Rounded MT Bold, '" x="84.905" y="963.615" font-family="Arial Rounded MT Bold">Q #4</tspan></text><path fill="#ccc" stroke="#000" stroke-dashoffset=".253" stroke-width=".581" d="M126.932 997.765H246.26v18.4H126.93z"/><text x="84.905" y="989.963" fill="red" stroke-width="1.568" font-family="Segoe Print" font-size="12.765" letter-spacing="0" transform="translate(88.57 21.62)" word-spacing="0" style="line-height:125%;-inkscape-font-specification:'Segoe Print'"><tspan x="84.905" y="989.963" font-family="Arial Rounded MT Bold" style="-inkscape-font-specification:'Arial Rounded MT Bold, '">Q #5</tspan></text><path fill="#fff" stroke="#000" stroke-dashoffset=".253" stroke-width="3" d="M38.19 575.032h297.903v197.902H38.19z"/><path fill="none" stroke="#000" stroke-dashoffset=".253" stroke-width=".779" d="M135.708 583.92h102.87v15.927h-102.87z"/><text x="76.972" y="853.918" font-family="sans-serif" font-size="14.329" letter-spacing="0" transform="matrix(1.00558 0 0 .99445 88.57 -252.113)" word-spacing="0" style="line-height:125%"><tspan x="76.972" y="853.918">LOGO</tspan></text><path fill="none" stroke="#000" stroke-width="1.132" d="M40.292 763.483h293.702"/><path fill="none" stroke="#000" d="M81.882 618.612H292.24"/><path fill="#e6e6e6" stroke="#000" stroke-dashoffset=".253" stroke-width="1.741" d="M38.014 617.007h297.9v66.265h-297.9z"/><path fill="#fff" stroke="#000" stroke-dashoffset=".253" stroke-width=".468" d="M154 662.075h65.214v11.704H154z"/><text x="177.967" y="947.58" font-family="sans-serif" font-size="10.038" letter-spacing="0" transform="translate(-1.69 -276.004)" word-spacing="0" style="line-height:125%"><tspan x="177.967" y="947.58">ASK</tspan></text><path fill="#ccc" stroke="#000" stroke-dashoffset=".253" stroke-width=".54" d="M131.796 697.98H240.48v17.465H131.795zM131.857 722.492H240.54v17.464H131.857z"/><text style="line-height:125%" x="42.414" y="930.935" font-family="sans-serif" font-size="5.544" letter-spacing="0" transform="translate(88.57 -238.38)" word-spacing="0"><tspan x="42.414" y="930.935">Recent Questions</tspan></text><text style="line-height:125%;-inkscape-font-specification:'Segoe Print'" x="63.935" y="882.729" fill="red" stroke-width="1.568" font-family="Segoe Print" font-size="11.627" letter-spacing="0" transform="translate(88.57 -238.38)" word-spacing="0"><tspan style="-inkscape-font-specification:'Arial Rounded MT Bold, '" x="63.935" y="882.729" font-family="Arial Rounded MT Bold">Background</tspan></text><text style="line-height:125%;-inkscape-font-specification:'Segoe Print'" x="85.615" y="948.941" fill="red" stroke-width="1.568" font-family="Segoe Print" font-size="11.627" letter-spacing="0" transform="translate(88.57 -238.38)" word-spacing="0"><tspan style="-inkscape-font-specification:'Arial Rounded MT Bold, '" x="85.615" y="948.941" font-family="Arial Rounded MT Bold">Q #1</tspan></text><text style="line-height:125%;-inkscape-font-specification:'Segoe Print'" x="85.677" y="973.452" fill="red" stroke-width="1.568" font-family="Segoe Print" font-size="11.627" letter-spacing="0" transform="translate(88.57 -238.38)" word-spacing="0"><tspan style="-inkscape-font-specification:'Arial Rounded MT Bold, '" x="85.677" y="973.452" font-family="Arial Rounded MT Bold">Q #2</tspan></text><path fill="#ccc" stroke="#000" stroke-dashoffset=".253" stroke-width=".529" d="M131.85 746.486h108.695v16.76H131.85z"/><text x="85.677" y="997.452" fill="red" stroke-width="1.568" font-family="Segoe Print" font-size="11.627" letter-spacing="0" transform="translate(88.57 -238.38)" word-spacing="0" style="line-height:125%;-inkscape-font-specification:'Segoe Print'"><tspan x="85.677" y="997.452" font-family="Arial Rounded MT Bold" style="-inkscape-font-specification:'Arial Rounded MT Bold, '">Q #3</tspan></text><text style="line-height:125%" x="22.548" y="37.822" font-family="sans-serif" font-size="11.044" letter-spacing="0" word-spacing="0"><tspan x="22.548" y="37.822">1. LANDING PAGE</tspan></text><g transform="translate(88.57 -759.286)"><path fill="#fff" stroke="#000" stroke-dashoffset=".253" stroke-width="3" d="M-50.38 813.41h297.902v197.903H-50.38z"/><path fill="none" stroke="#000" stroke-dashoffset=".253" stroke-width="1.259" d="M-22.505 857.203h242.153v81.973H-22.505z"/><g fill="none" stroke="#000" stroke-dashoffset=".253" transform="translate(-91.786 747.37)"><ellipse cx="170.357" cy="200.041" rx="3.929" ry="1.964"/><ellipse cx="190.357" cy="200.041" rx="3.929" ry="1.964"/><ellipse cx="210.357" cy="200.041" rx="3.929" ry="1.964"/></g><path fill="none" stroke="#000" stroke-dashoffset=".253" d="M61.066 960.035h75.012v21.89H61.066z"/><path fill="none" stroke="#000" stroke-width="1.132" d="M-48.28 1001.862h293.702"/><path fill="none" stroke="#000" stroke-dashoffset=".253" stroke-width=".779" d="M47.137 822.3h102.87v15.926H47.137z"/><text x="76.972" y="853.918" font-family="sans-serif" font-size="14.329" letter-spacing="0" transform="matrix(1.00558 0 0 .99445 0 -13.734)" word-spacing="0" style="line-height:125%"><tspan x="76.972" y="853.918">LOGO</tspan></text><text x="80.743" y="974.93" font-family="sans-serif" font-size="10.867" letter-spacing="0" word-spacing="0" style="line-height:125%"><tspan x="80.743" y="974.93">LOGIN</tspan></text><text style="line-height:125%;-inkscape-font-specification:'Arial Bold'" x="18.733" y="906.891" fill="red" font-family="Arial" font-size="14.329" font-weight="bold" letter-spacing="0" transform="scale(1.00558 .99445)" word-spacing="0"><tspan x="18.733" y="906.891" style="-inkscape-font-specification:'Arial Bold'">Explanation about arlin</tspan></text><ellipse cx="98.416" cy="947.163" fill="none" stroke="red" stroke-dashoffset=".253" rx="44.194" ry="6.061"/><path fill="none" stroke="red" d="M136.125 950.344l22.687 6.072"/><text style="line-height:125%;-inkscape-font-specification:Arial" x="159.53" y="959.285" fill="red" font-family="Arial" font-size="7.5" letter-spacing="0" word-spacing="0"><tspan x="159.53" y="959.285" style="-inkscape-font-specification:Arial">If Needed</tspan></text></g><g><text x="22.548" y="315.417" font-family="sans-serif" font-size="11.044" letter-spacing="0" transform="translate(0 -17.38)" word-spacing="0" style="line-height:125%"><tspan x="22.548" y="315.417">2. Click Login - LOGIN</tspan></text><path fill="#fff" stroke="#000" stroke-dashoffset=".253" stroke-width="3" d="M38.19 315.032h297.903v197.902H38.19z"/><path fill="none" stroke="#000" stroke-dashoffset=".253" stroke-width="1.259" d="M66.066 358.824H308.22v81.973H66.065z"/><g fill="none" stroke="#000" stroke-dashoffset=".253" transform="translate(-3.214 248.99)"><ellipse cx="170.357" cy="200.041" rx="3.929" ry="1.964"/><ellipse cx="190.357" cy="200.041" rx="3.929" ry="1.964"/><ellipse cx="210.357" cy="200.041" rx="3.929" ry="1.964"/></g><path fill="none" stroke="#000" stroke-dashoffset=".253" d="M149.637 461.656h75.012v21.89h-75.013z"/><path fill="none" stroke="#000" stroke-width="1.132" d="M40.292 503.483h293.702"/><path fill="none" stroke="#000" stroke-dashoffset=".253" stroke-width=".779" d="M135.708 323.92h102.87v15.927h-102.87z"/><text style="line-height:125%" x="76.972" y="853.918" font-family="sans-serif" font-size="14.329" letter-spacing="0" transform="matrix(1.00558 0 0 .99445 88.57 -512.113)" word-spacing="0"><tspan x="76.972" y="853.918">LOGO</tspan></text><text style="line-height:125%" x="80.743" y="974.93" font-family="sans-serif" font-size="10.867" letter-spacing="0" transform="translate(88.57 -498.38)" word-spacing="0"><tspan x="80.743" y="974.93">LOGIN</tspan></text><g><path fill="#333" d="M37.143 313.983h300v200h-300z" opacity=".488"/><path fill="#fff" stroke="#000" stroke-dashoffset=".253" stroke-width="1.28" d="M115.357 386.72h143.57v74.3h-143.57z"/><path fill="#fff" stroke="#000" stroke-dashoffset=".253" stroke-width=".36" d="M173.185 414.406h77.347v10.927h-77.347z"/><text style="line-height:125%" x="125.25" y="423.903" font-family="sans-serif" font-size="8.805" letter-spacing="0" transform="translate(-2.438 -2.06)" word-spacing="0"><tspan x="125.25" y="423.903">username</tspan></text><path fill="#fff" stroke="#000" stroke-dashoffset=".253" stroke-width=".36" d="M162.058 441.368h50.17v9.004h-50.17z"/><text style="line-height:125%" x="-219.59" y="1047.603" font-family="sans-serif" font-size="6.448" letter-spacing="0" transform="translate(396.155 -599.39)" word-spacing="0"><tspan x="-219.59" y="1047.603">LOGIN</tspan></text></g></g><text x="22.548" y="558.038" font-family="sans-serif" font-size="11.044" letter-spacing="0" word-spacing="0" style="line-height:125%"><tspan x="22.548" y="558.038">3. Login successful - MAIN PAGE</tspan></text><text style="line-height:125%" x="22.548" y="818.038" font-family="sans-serif" font-size="11.044" letter-spacing="0" word-spacing="0"><tspan x="22.548" y="818.038">4. Scroll down - MAIN PAGE</tspan></text><g><path fill="#fff" stroke="#000" stroke-dashoffset=".253" stroke-width="3" d="M-50.38 813.41h297.902v197.903H-50.38z" transform="matrix(.997 0 0 .9955 458.867 -290.282)"/><path fill="none" stroke="#000" stroke-dashoffset=".253" stroke-width=".361" d="M447.818 508.626h75.09v14.824h-75.09z" transform="matrix(.997 0 0 .9955 73.235 172.03)"/><text style="line-height:125%" x="463.364" y="519.978" font-family="sans-serif" font-size="10.867" letter-spacing="0" transform="matrix(.997 0 0 .9955 73.235 172.03)" word-spacing="0"><tspan x="463.364" y="519.978">SUBMIT</tspan></text><path fill="none" stroke="#000" stroke-width="1.132" d="M-48.28 1001.862h293.702" transform="matrix(.997 0 0 .9955 458.867 -290.282)"/><path fill="none" stroke="#000" stroke-dashoffset=".253" stroke-width=".779" d="M47.137 836.034h102.87v15.926H47.137z" transform="matrix(.997 0 0 .9955 458.867 -303.954)"/><text x="76.972" y="853.918" font-family="sans-serif" font-size="14.329" letter-spacing="0" transform="matrix(1.0026 0 0 .99 458.867 -303.954)" word-spacing="0" style="line-height:125%"><tspan x="76.972" y="853.918">LOGO</tspan></text><path fill="none" stroke="#000" stroke-width="1.908" d="M-50.268 855.47H246.34" transform="matrix(.997 0 0 .9955 458.867 -290.282)"/><path fill="none" stroke="#000" stroke-width=".572" d="M334.192 807.814l-5.41 2.35 5.098 2.562" transform="matrix(.997 0 0 .9955 99.947 -226.572)"/><text x="336.663" y="811.521" font-family="sans-serif" font-size="4.441" letter-spacing="0" transform="matrix(.997 0 0 .9955 99.947 -226.572)" word-spacing="0" style="line-height:125%"><tspan x="336.663" y="811.521">back</tspan></text><text x="514.77" y="425.995" font-family="sans-serif" font-size="7.5" letter-spacing="0" transform="matrix(.997 0 0 .9955 23.756 158.09)" word-spacing="0" style="line-height:125%"><tspan x="514.77" y="425.995">QUESTION</tspan></text><path fill="none" stroke="#000" stroke-width=".392" d="M515.714 427.362h39.077" transform="matrix(.997 0 0 .9955 23.756 158.09)"/><path fill="none" stroke="#000" stroke-dashoffset=".253" stroke-width=".492" d="M-5.904 884.67h208.952v24.21H-5.904zM-5.84 929.232h208.824v36.226H-5.84z" transform="matrix(.997 0 0 .9955 458.867 -290.282)"/><g><text style="line-height:125%" x="494.77" y="425.995" font-family="sans-serif" font-size="7.5" letter-spacing="0" transform="matrix(.997 0 0 .9955 35.403 202.648)" word-spacing="0"><tspan x="494.77" y="425.995">YOUR ANSWER</tspan></text><path fill="none" stroke="#000" stroke-width=".468" d="M495.714 427.362h55.618" transform="matrix(.997 0 0 .9955 35.403 202.648)"/></g></g><g><path fill="#fff" stroke="#000" stroke-dashoffset=".253" stroke-width="3" d="M-50.38 813.41h297.902v197.903H-50.38z" transform="matrix(.997 0 0 .9955 458.867 -550.282)"/><path fill="none" stroke="#000" stroke-width="1.132" d="M-48.28 1001.862h293.702" transform="matrix(.997 0 0 .9955 458.867 -550.282)"/><path fill="none" stroke="#000" stroke-dashoffset=".253" stroke-width=".779" d="M47.137 836.034h102.87v15.926H47.137z" transform="matrix(.997 0 0 .9955 458.867 -563.954)"/><text x="76.972" y="853.918" font-family="sans-serif" font-size="14.329" letter-spacing="0" transform="matrix(1.0026 0 0 .99 458.867 -563.954)" word-spacing="0" style="line-height:125%"><tspan x="76.972" y="853.918">LOGO</tspan></text><path fill="none" stroke="#000" stroke-width="1.908" d="M-50.268 855.47H246.34" transform="matrix(.997 0 0 .9955 458.867 -550.282)"/><text x="65.045" y="876.327" font-family="sans-serif" font-size="7.5" letter-spacing="0" transform="matrix(.997 0 0 .9955 458.867 -550.282)" word-spacing="0" style="line-height:125%"><tspan x="65.045" y="876.327">ADD A QUESTION</tspan></text><path fill="none" stroke="#000" stroke-width=".5" d="M66.786 877.695h63.57" transform="matrix(.997 0 0 .9955 458.867 -550.282)"/><path fill="none" stroke="#000" stroke-dashoffset=".253" stroke-width=".361" d="M443.818 208.626h75.09v14.824h-75.09z" transform="matrix(.997 0 0 .9955 77.223 210.618)"/><text style="line-height:125%" x="470.181" y="219.988" font-family="sans-serif" font-size="10.867" letter-spacing="0" transform="matrix(.997 0 0 .9955 77.223 210.618)" word-spacing="0"><tspan x="470.181" y="219.988">ASK</tspan></text><path fill="none" stroke="#000" stroke-dashoffset=".253" stroke-width=".416" d="M4.604 894.36h187.934v11.512H4.604z" transform="matrix(.997 0 0 .9955 458.867 -550.282)"/><path fill="none" stroke="#000" stroke-dashoffset=".253" stroke-width=".457" d="M4.625 918.558h187.893v44.397H4.625z" transform="matrix(.997 0 0 .9955 458.867 -550.282)"/><g font-family="sans-serif" font-size="4.441" letter-spacing="0" word-spacing="0"><text style="line-height:125%" x="19.158" y="891.988" transform="matrix(.997 0 0 .9955 444.15 -550.282)"><tspan x="19.158" y="891.988">TITLE</tspan></text><text x="19.158" y="915.988" transform="matrix(.997 0 0 .9955 444.15 -550.282)" style="line-height:125%"><tspan x="19.158" y="915.988">POST DESCRIPTION</tspan></text></g><g><path fill="none" stroke="#000" stroke-width=".572" d="M334.192 807.814l-5.41 2.35 5.098 2.562" transform="matrix(.997 0 0 .9955 99.947 -486.572)"/><text x="336.663" y="811.521" font-family="sans-serif" font-size="4.441" letter-spacing="0" transform="matrix(.997 0 0 .9955 99.947 -486.572)" word-spacing="0" style="line-height:125%"><tspan x="336.663" y="811.521">back</tspan></text></g></g><text x="392.548" y="242.038" font-family="sans-serif" font-size="11.044" letter-spacing="0" word-spacing="0" style="line-height:125%"><tspan x="392.548" y="242.038">5. Click ASK button on Main Page - POSTING QUESTION PAGE</tspan></text><text style="line-height:125%" x="392.548" y="502.038" font-family="sans-serif" font-size="11.044" letter-spacing="0" word-spacing="0"><tspan x="392.548" y="502.038">6. Click QBox on Main Page - ANSWER QUESTION PAGE</tspan></text><text x="392.548" y="762.038" font-family="sans-serif" font-size="11.044" letter-spacing="0" word-spacing="0" style="line-height:125%"><tspan x="392.548" y="762.038">7. Question Box on Main Page</tspan></text><g><path fill="#fff" stroke="#000" stroke-dashoffset=".253" stroke-width="1.279" d="M419.06 778.623h280.1v38.037h-280.1z"/><path fill="#ececec" stroke="#000" stroke-dashoffset=".253" stroke-width="1.168" d="M415.07 778.567h35.027v38.148H415.07z"/><path fill="#ececec" stroke="#000" stroke-dashoffset=".253" stroke-width="1.168" d="M449.76 778.567h35.026v38.148H449.76z"/><text x="252.407" y="703.968" font-family="sans-serif" font-size="16.25" letter-spacing="0" transform="translate(175.305 95.28)" word-spacing="0" style="line-height:125%"><tspan x="252.407" y="703.968">0</tspan></text><text x="243.601" y="715.575" font-family="sans-serif" font-size="7.5" letter-spacing="0" transform="translate(175.305 95.28)" word-spacing="0" style="line-height:125%"><tspan x="243.601" y="715.575">asnwer</tspan></text><text style="line-height:125%;text-align:center" x="291.777" y="695.575" font-family="sans-serif" font-size="7.5" letter-spacing="0" text-anchor="middle" transform="translate(175.305 95.28)" word-spacing="0"><tspan x="291.777" y="695.575">asked</tspan><tspan x="291.777" y="704.95">by</tspan><tspan x="291.777" y="714.325">ruth</tspan></text><text x="430.703" y="616.594" font-family="sans-serif" font-size="7.068" letter-spacing="0" transform="matrix(.874 0 0 1.1443 175.305 95.28)" word-spacing="0" style="line-height:125%"><tspan x="430.703" y="616.594" font-size="10">Can I ask you a question?</tspan></text><path fill="#ececec" stroke="#000" stroke-dashoffset=".253" stroke-width="1.168" d="M483.954 778.568h35.026v38.148h-35.026z"/><text x="326.158" y="699.665" font-family="sans-serif" font-size="7.5" letter-spacing="0" text-anchor="middle" transform="translate(175.305 95.28)" word-spacing="0" style="line-height:125%;text-align:center"><tspan x="326.158" y="699.665">Time</tspan><tspan x="326.158" y="709.04">stamp</tspan></text></g><path fill="red" fill-rule="evenodd" stroke="red" stroke-width="2" d="M305 260.934v40.714"/><path fill="red" fill-rule="evenodd" d="M297.165 293.416l7.857 9.643 9.285-8.93"/><path fill="red" fill-rule="evenodd" stroke="red" stroke-width="2" d="M305 520.934v40.714"/><path fill="red" fill-rule="evenodd" d="M296.875 553.88l7.857 9.643 9.286-8.93"/><path fill="red" fill-rule="evenodd" stroke="red" stroke-width="2" d="M305 780.934v40.714"/><path fill="red" fill-rule="evenodd" d="M296.786 813.648l7.857 9.643 9.286-8.928"/><path fill="none" stroke="red" stroke-width="2" d="M231.07 669.505h133.216V343.79h31.428M290.924 900.84h92.934V792.752h30.81"/><path fill="none" stroke="red" stroke-width="2" d="M241.426 706.89h143.442V597.794h14.142"/><ellipse cx="188.571" cy="900.699" fill="none" stroke="red" stroke-dashoffset=".253" stroke-width="1.916" rx="101.827" ry="16.46"/><g fill="none" stroke="red" transform="translate(-32.5 62.5)"><ellipse cx="402.42" cy="810.178" stroke-dashoffset=".253" stroke-width="2" rx="5.935" ry="6.061"/><path d="M398.505 815.734l-9.723 9.723 1.126.65z"/></g><ellipse cx="186.429" cy="668.255" fill="none" stroke="red" stroke-dashoffset=".253" stroke-width="2" rx="44.286" ry="16.25"/><path fill="red" fill-rule="evenodd" d="M394.433 605.14l9.643-7.857-8.93-9.285M391.158 350.796l9.643-7.857-8.927-9.286"/></g><text x="247.761" y="-85.449" font-family="sans-serif" font-size="38.832" letter-spacing="0" transform="translate(0 147.638)" word-spacing="0" style="line-height:125%"><tspan x="247.761" y="-85.449">Wireframe Flow</tspan></text></svg>