<svg xmlns="http://www.w3.org/2000/svg" width="300" height="200" viewBox="0 0 300.00001 199.99999"><path fill="#fff" stroke="#000" stroke-width="3" stroke-dashoffset=".253" d="M-50.38 813.41h297.902v197.903H-50.38z" transform="matrix(.997 0 0 .9955 51.723 -808.266)"/><path d="M-48.28 1001.862h293.702" fill="none" stroke="#000" stroke-width="1.132" transform="matrix(.997 0 0 .9955 51.723 -808.266)"/><path fill="none" stroke="#000" stroke-width=".779" stroke-dashoffset=".253" d="M47.137 836.034h102.87v15.926H47.137z" transform="matrix(.997 0 0 .9955 51.723 -821.938)"/><text transform="matrix(1.0026 0 0 .99 51.723 -821.938)" y="853.918" x="76.972" style="line-height:125%" font-size="14.329" font-family="sans-serif" letter-spacing="0" word-spacing="0"><tspan y="853.918" x="76.972">LOGO</tspan></text><path fill="#ccc" stroke="#000" stroke-width=".593" stroke-dashoffset=".253" d="M38.3 870.198h119.316v19.172H38.3zM38.368 897.108h119.315v19.172H38.368z" transform="matrix(.997 0 0 .9955 51.723 -808.266)"/><text y="864.243" x="37.41" style="line-height:125%" font-size="6.087" font-family="sans-serif" letter-spacing="0" word-spacing="0" transform="matrix(.997 0 0 .9955 51.723 -808.266)"><tspan y="864.243" x="37.41">Recent Questions</tspan></text><text y="884.01" x="84.838" style="line-height:125%;-inkscape-font-specification:'Segoe Print'" font-size="12.765" font-family="Segoe Print" letter-spacing="0" word-spacing="0" fill="red" stroke-width="1.568" transform="matrix(.997 0 0 .9955 51.723 -808.266)"><tspan y="884.01" x="84.838" style="-inkscape-font-specification:'Arial Rounded MT Bold, '" font-family="Arial Rounded MT Bold">Q #1</tspan></text><text y="910.92" x="84.905" style="line-height:125%;-inkscape-font-specification:'Segoe Print'" font-size="12.765" font-family="Segoe Print" letter-spacing="0" word-spacing="0" fill="red" stroke-width="1.568" transform="matrix(.997 0 0 .9955 51.723 -808.266)"><tspan y="910.92" x="84.905" style="-inkscape-font-specification:'Arial Rounded MT Bold, '" font-family="Arial Rounded MT Bold">Q #2</tspan></text><path d="M-50.268 855.47H246.34" fill="none" stroke="#000" stroke-width="1.908" transform="matrix(.997 0 0 .9955 51.723 -808.266)"/><path fill="#ccc" stroke="#000" stroke-width=".593" stroke-dashoffset=".253" d="M38.3 922.894h119.316v19.172H38.3zM38.368 949.804h119.315v19.172H38.368z" transform="matrix(.997 0 0 .9955 51.723 -808.266)"/><text style="line-height:125%;-inkscape-font-specification:'Segoe Print'" x="84.838" y="936.706" font-size="12.765" font-family="Segoe Print" letter-spacing="0" word-spacing="0" fill="red" stroke-width="1.568" transform="matrix(.997 0 0 .9955 51.723 -808.266)"><tspan style="-inkscape-font-specification:'Arial Rounded MT Bold, '" x="84.838" y="936.706" font-family="Arial Rounded MT Bold">Q #3</tspan></text><text style="line-height:125%;-inkscape-font-specification:'Segoe Print'" x="84.905" y="963.615" font-size="12.765" font-family="Segoe Print" letter-spacing="0" word-spacing="0" fill="red" stroke-width="1.568" transform="matrix(.997 0 0 .9955 51.723 -808.266)"><tspan style="-inkscape-font-specification:'Arial Rounded MT Bold, '" x="84.905" y="963.615" font-family="Arial Rounded MT Bold">Q #4</tspan></text><path fill="#ccc" stroke="#000" stroke-width=".581" stroke-dashoffset=".253" d="M38.362 976.145H157.69v18.4H38.36z" transform="matrix(.997 0 0 .9955 51.723 -808.266)"/><text y="989.963" x="84.905" style="line-height:125%;-inkscape-font-specification:'Segoe Print'" font-size="12.765" font-family="Segoe Print" letter-spacing="0" word-spacing="0" fill="red" stroke-width="1.568" transform="matrix(.997 0 0 .9955 51.723 -808.266)"><tspan y="989.963" x="84.905" style="-inkscape-font-specification:'Arial Rounded MT Bold, '" font-family="Arial Rounded MT Bold">Q #5</tspan></text></svg>