<svg xmlns="http://www.w3.org/2000/svg" width="300" height="200" viewBox="0 0 300 200"><path fill="#fff" stroke="#000" stroke-dashoffset=".253" stroke-width="3" d="M-50.38 813.41h297.902v197.903H-50.38z" transform="matrix(.997 0 0 .9955 51.723 -807.815)"/><path fill="none" stroke="#000" stroke-width="1.132" d="M-48.28 1001.862h293.702" transform="matrix(.997 0 0 .9955 51.723 -807.815)"/><path fill="none" stroke="#000" stroke-dashoffset=".253" stroke-width=".779" d="M47.137 836.034h102.87v15.926H47.137z" transform="matrix(.997 0 0 .9955 51.723 -821.487)"/><text x="76.972" y="853.918" font-family="sans-serif" font-size="14.329" letter-spacing="0" transform="matrix(1.0026 0 0 .99 51.723 -821.487)" word-spacing="0" style="line-height:125%"><tspan x="76.972" y="853.918">LOGO</tspan></text><path fill="none" stroke="#000" stroke-width="1.908" d="M-50.268 855.47H246.34" transform="matrix(.997 0 0 .9955 51.723 -807.815)"/><text x="65.045" y="876.327" font-family="sans-serif" font-size="7.5" letter-spacing="0" transform="matrix(.997 0 0 .9955 51.723 -807.815)" word-spacing="0" style="line-height:125%"><tspan x="65.045" y="876.327">ADD A QUESTION</tspan></text><path fill="none" stroke="#000" stroke-width=".5" d="M66.786 877.695h63.57" transform="matrix(.997 0 0 .9955 51.723 -807.815)"/><path fill="none" stroke="#000" stroke-dashoffset=".253" stroke-width=".361" d="M443.818 208.626h75.09v14.824h-75.09z" transform="matrix(.997 0 0 .9955 -329.92 -46.915)"/><text style="line-height:125%" x="470.181" y="219.988" font-family="sans-serif" font-size="10.867" letter-spacing="0" transform="matrix(.997 0 0 .9955 -329.92 -46.915)" word-spacing="0"><tspan x="470.181" y="219.988">ASK</tspan></text><path fill="none" stroke="#000" stroke-dashoffset=".253" stroke-width=".416" d="M4.604 894.36h187.934v11.512H4.604z" transform="matrix(.997 0 0 .9955 51.723 -807.815)"/><path fill="none" stroke="#000" stroke-dashoffset=".253" stroke-width=".457" d="M4.625 918.558h187.893v44.397H4.625z" transform="matrix(.997 0 0 .9955 51.723 -807.815)"/><g font-family="sans-serif" font-size="4.441" letter-spacing="0" word-spacing="0"><text style="line-height:125%" x="19.158" y="891.988" transform="matrix(.997 0 0 .9955 37.006 -807.815)"><tspan x="19.158" y="891.988">TITLE</tspan></text><text x="19.158" y="915.988" transform="matrix(.997 0 0 .9955 37.006 -807.815)" style="line-height:125%"><tspan x="19.158" y="915.988">POST DESCRIPTION</tspan></text></g><g><path fill="none" stroke="#000" stroke-width=".572" d="M334.192 807.814l-5.41 2.35 5.098 2.562" transform="matrix(.997 0 0 .9955 -307.197 -744.105)"/><text x="336.663" y="811.521" font-family="sans-serif" font-size="4.441" letter-spacing="0" transform="matrix(.997 0 0 .9955 -307.197 -744.105)" word-spacing="0" style="line-height:125%"><tspan x="336.663" y="811.521">back</tspan></text></g></svg>