<svg xmlns="http://www.w3.org/2000/svg" width="300" height="200" viewBox="0 0 300.00001 199.99999"><path fill="#fff" stroke="#000" stroke-width="3" stroke-dashoffset=".253" d="M-50.38 813.41h297.902v197.903H-50.38z" transform="matrix(.997 0 0 .9955 51.724 -808.265)"/><path fill="none" stroke="#000" stroke-width="1.259" stroke-dashoffset=".253" d="M-22.505 857.203h242.153v81.973H-22.505z" transform="matrix(.997 0 0 .9955 51.724 -808.265)"/><g transform="matrix(.997 0 0 .9955 -39.786 -64.25)" fill="none" stroke="#000" stroke-dashoffset=".253"><ellipse ry="1.964" rx="3.929" cy="200.041" cx="170.357"/><ellipse cx="190.357" cy="200.041" rx="3.929" ry="1.964"/><ellipse ry="1.964" rx="3.929" cy="200.041" cx="210.357"/></g><path fill="none" stroke="#000" stroke-dashoffset=".253" d="M61.066 960.035h75.012v21.89H61.066z" transform="matrix(.997 0 0 .9955 51.724 -808.265)"/><path d="M-48.28 1001.862h293.702" fill="none" stroke="#000" stroke-width="1.132" transform="matrix(.997 0 0 .9955 51.724 -808.265)"/><path fill="none" stroke="#000" stroke-width=".779" stroke-dashoffset=".253" d="M47.137 836.034h102.87v15.926H47.137z" transform="matrix(.997 0 0 .9955 51.724 -821.937)"/><text transform="matrix(1.0026 0 0 .99 51.724 -821.937)" y="853.918" x="76.972" style="line-height:125%" font-size="14.329" font-family="sans-serif" letter-spacing="0" word-spacing="0"><tspan y="853.918" x="76.972">LOGO</tspan></text><text y="974.93" x="80.743" style="line-height:125%" font-size="10.867" font-family="sans-serif" letter-spacing="0" word-spacing="0" transform="matrix(.997 0 0 .9955 51.724 -808.265)"><tspan y="974.93" x="80.743">LOGIN</tspan></text><g><path opacity=".488" fill="#333" d="M.45.45h299.1v199.1H.45z"/><path fill="#fff" stroke="#000" stroke-width="1.28" stroke-dashoffset=".253" d="M-280.798 986.108h143.57v74.302h-143.57z" transform="matrix(.997 0 0 .9955 358.386 -908.82)"/><path fill="#fff" stroke="#000" stroke-width=".36" stroke-dashoffset=".253" d="M175.623 416.467h77.347v10.927h-77.347z" transform="matrix(.997 0 0 .9955 -39.012 -314.176)"/><text y="423.903" x="125.25" style="line-height:125%" font-size="8.805" font-family="sans-serif" letter-spacing="0" word-spacing="0" transform="matrix(.997 0 0 .9955 -39.012 -314.176)"><tspan y="423.903" x="125.25">username</tspan></text><path fill="#fff" stroke="#000" stroke-width=".36" stroke-dashoffset=".253" d="M-234.097 1040.757h50.17v9.004h-50.17z" transform="matrix(.997 0 0 .9955 358.386 -908.82)"/><text y="1047.603" x="-219.59" style="line-height:125%" font-size="6.448" font-family="sans-serif" letter-spacing="0" word-spacing="0" transform="matrix(.997 0 0 .9955 358.386 -908.82)"><tspan y="1047.603" x="-219.59">LOGIN</tspan></text></g></svg>