<svg xmlns="http://www.w3.org/2000/svg" width="300" height="200" viewBox="0 0 300 200"><path fill="#fff" stroke="#000" stroke-dashoffset=".253" stroke-width="3" d="M-50.38 813.41h297.902v197.903H-50.38z" transform="matrix(.997 0 0 .9955 51.724 -808.265)"/><path fill="none" stroke="#000" stroke-dashoffset=".253" stroke-width="1.259" d="M-22.505 857.203h242.153v81.973H-22.505z" transform="matrix(.997 0 0 .9955 51.724 -808.265)"/><g fill="none" stroke="#000" stroke-dashoffset=".253" transform="matrix(.997 0 0 .9955 -39.786 -64.25)"><ellipse cx="170.357" cy="200.041" rx="3.929" ry="1.964"/><ellipse cx="190.357" cy="200.041" rx="3.929" ry="1.964"/><ellipse cx="210.357" cy="200.041" rx="3.929" ry="1.964"/></g><path fill="none" stroke="#000" stroke-dashoffset=".253" d="M61.066 960.035h75.012v21.89H61.066z" transform="matrix(.997 0 0 .9955 51.724 -808.265)"/><path fill="none" stroke="#000" stroke-width="1.132" d="M-48.28 1001.862h293.702" transform="matrix(.997 0 0 .9955 51.724 -808.265)"/><path fill="none" stroke="#000" stroke-dashoffset=".253" stroke-width=".779" d="M47.137 836.034h102.87v15.926H47.137z" transform="matrix(.997 0 0 .9955 51.724 -821.937)"/><text x="76.972" y="853.918" font-family="sans-serif" font-size="14.329" letter-spacing="0" transform="matrix(1.0026 0 0 .99 51.724 -821.937)" word-spacing="0" style="line-height:125%"><tspan x="76.972" y="853.918">LOGO</tspan></text><text x="80.743" y="974.93" font-family="sans-serif" font-size="10.867" letter-spacing="0" transform="matrix(.997 0 0 .9955 51.724 -808.265)" word-spacing="0" style="line-height:125%"><tspan x="80.743" y="974.93">LOGIN</tspan></text><g><path fill="#333" d="M.45.45h299.1v199.1H.45z" opacity=".488"/><path fill="#fff" stroke="#000" stroke-dashoffset=".253" stroke-width="1.28" d="M-280.798 986.108h143.57v74.302h-143.57z" transform="matrix(.997 0 0 .9955 358.386 -908.82)"/><path fill="#fff" stroke="#000" stroke-dashoffset=".253" stroke-width=".36" d="M175.623 416.467h77.347v10.927h-77.347z" transform="matrix(.997 0 0 .9955 -39.012 -314.176)"/><text x="125.25" y="423.903" font-family="sans-serif" font-size="8.805" letter-spacing="0" transform="matrix(.997 0 0 .9955 -39.012 -314.176)" word-spacing="0" style="line-height:125%"><tspan x="125.25" y="423.903">username</tspan></text><path fill="#fff" stroke="#000" stroke-dashoffset=".253" stroke-width=".36" d="M-234.097 1040.757h50.17v9.004h-50.17z" transform="matrix(.997 0 0 .9955 358.386 -908.82)"/><text x="-219.59" y="1047.603" font-family="sans-serif" font-size="6.448" letter-spacing="0" transform="matrix(.997 0 0 .9955 358.386 -908.82)" word-spacing="0" style="line-height:125%"><tspan x="-219.59" y="1047.603">LOGIN</tspan></text></g></svg>