<svg xmlns="http://www.w3.org/2000/svg" width="300" height="200" viewBox="0 0 300.00001 199.99999"><path fill="#fff" stroke="#000" stroke-width="3" stroke-dashoffset=".253" d="M-50.38 813.41h297.902v197.903H-50.38z" transform="matrix(.997 0 0 .9955 51.724 -808.265)"/><path fill="none" stroke="#000" stroke-width=".779" stroke-dashoffset=".253" d="M47.137 836.034h102.87v15.926H47.137z" transform="matrix(.997 0 0 .9955 51.724 -821.937)"/><text transform="matrix(1.00257 0 0 .98998 51.724 -821.937)" y="853.918" x="76.972" style="line-height:125%" font-size="14.329" font-family="sans-serif" letter-spacing="0" word-spacing="0"><tspan y="853.918" x="76.972">LOGO</tspan></text><path d="M-48.28 1001.862h293.702" fill="none" stroke="#000" stroke-width="1.132" transform="matrix(.997 0 0 .9955 51.724 -808.265)"/><g><path d="M-6.69 856.99H203.67" fill="none" stroke="#000" transform="matrix(.997 0 0 .9955 51.724 -808.265)"/><path fill="#e6e6e6" stroke="#000" stroke-width="1.741" stroke-dashoffset=".253" d="M-50.557 855.386h297.9v66.265h-297.9z" transform="matrix(.997 0 0 .9955 51.724 -808.265)"/><path fill="#fff" stroke="#000" stroke-width=".468" stroke-dashoffset=".253" d="M155.69 938.08h65.213v11.703H155.69z" transform="matrix(.997 0 0 .9955 -38.266 -845.72)"/><text y="947.58" x="177.967" style="line-height:125%" font-size="10.038" font-family="sans-serif" letter-spacing="0" word-spacing="0" transform="matrix(.997 0 0 .9955 -38.266 -845.72)"><tspan y="947.58" x="177.967">ASK</tspan></text><path fill="#ccc" stroke="#000" stroke-width=".54" stroke-dashoffset=".253" d="M43.225 936.36h108.683v17.464H43.225zM43.286 960.87H151.97v17.465H43.285z" transform="matrix(.997 0 0 .9955 51.724 -808.265)"/><text style="line-height:125%" x="42.414" y="930.935" font-size="5.544" font-family="sans-serif" letter-spacing="0" word-spacing="0" transform="matrix(.997 0 0 .9955 51.724 -808.265)"><tspan x="42.414" y="930.935">Recent Questions</tspan></text><text style="line-height:125%;-inkscape-font-specification:'Segoe Print'" x="63.935" y="882.729" font-size="11.627" font-family="Segoe Print" letter-spacing="0" word-spacing="0" fill="red" stroke-width="1.568" transform="matrix(.997 0 0 .9955 51.724 -808.265)"><tspan style="-inkscape-font-specification:'Arial Rounded MT Bold, '" x="63.935" y="882.729" font-family="Arial Rounded MT Bold">Background</tspan></text><text style="line-height:125%;-inkscape-font-specification:'Segoe Print'" x="85.615" y="948.941" font-size="11.627" font-family="Segoe Print" letter-spacing="0" word-spacing="0" fill="red" stroke-width="1.568" transform="matrix(.997 0 0 .9955 51.724 -808.265)"><tspan style="-inkscape-font-specification:'Arial Rounded MT Bold, '" x="85.615" y="948.941" font-family="Arial Rounded MT Bold">Q #1</tspan></text><text style="line-height:125%;-inkscape-font-specification:'Segoe Print'" x="85.677" y="973.452" font-size="11.627" font-family="Segoe Print" letter-spacing="0" word-spacing="0" fill="red" stroke-width="1.568" transform="matrix(.997 0 0 .9955 51.724 -808.265)"><tspan style="-inkscape-font-specification:'Arial Rounded MT Bold, '" x="85.677" y="973.452" font-family="Arial Rounded MT Bold">Q #2</tspan></text><path fill="#ccc" stroke="#000" stroke-width=".529" stroke-dashoffset=".253" d="M43.28 984.866h108.695v16.76H43.28z" transform="matrix(.997 0 0 .9955 51.724 -808.265)"/><text y="997.452" x="85.677" style="line-height:125%;-inkscape-font-specification:'Segoe Print'" font-size="11.627" font-family="Segoe Print" letter-spacing="0" word-spacing="0" fill="red" stroke-width="1.568" transform="matrix(.997 0 0 .9955 51.724 -808.265)"><tspan y="997.452" x="85.677" style="-inkscape-font-specification:'Arial Rounded MT Bold, '" font-family="Arial Rounded MT Bold">Q #3</tspan></text></g></svg>