<svg xmlns="http://www.w3.org/2000/svg" width="300" height="200" viewBox="0 0 300.00001 199.99999"><g transform="matrix(.997 0 0 .9955 51.724 -808.265)"><path fill="#fff" stroke="#000" stroke-width="3" stroke-dashoffset=".253" d="M-50.38 813.41h297.902v197.903H-50.38z"/><path fill="none" stroke="#000" stroke-width="1.259" stroke-dashoffset=".253" d="M-22.505 857.203h242.153v81.973H-22.505z"/><g transform="translate(-91.786 747.37)" fill="none" stroke="#000" stroke-dashoffset=".253"><ellipse ry="1.964" rx="3.929" cy="200.041" cx="170.357"/><ellipse cx="190.357" cy="200.041" rx="3.929" ry="1.964"/><ellipse ry="1.964" rx="3.929" cy="200.041" cx="210.357"/></g><path fill="none" stroke="#000" stroke-dashoffset=".253" d="M61.066 960.035h75.012v21.89H61.066z"/><path d="M-48.28 1001.862h293.702" fill="none" stroke="#000" stroke-width="1.132"/><path fill="none" stroke="#000" stroke-width=".779" stroke-dashoffset=".253" d="M47.137 822.3h102.87v15.926H47.137z"/><text transform="matrix(1.00558 0 0 .99445 0 -13.734)" y="853.918" x="76.972" style="line-height:125%" font-size="14.329" font-family="sans-serif" letter-spacing="0" word-spacing="0"><tspan y="853.918" x="76.972">LOGO</tspan></text><text y="974.93" x="80.743" style="line-height:125%" font-size="10.867" font-family="sans-serif" letter-spacing="0" word-spacing="0"><tspan y="974.93" x="80.743">LOGIN</tspan></text><text style="line-height:125%;-inkscape-font-specification:'Arial Bold'" x="18.733" y="906.891" transform="scale(1.00558 .99445)" font-weight="bold" font-size="14.329" font-family="Arial" letter-spacing="0" word-spacing="0" fill="red"><tspan x="18.733" y="906.891" style="-inkscape-font-specification:'Arial Bold'">Explanation about arlin</tspan></text><ellipse cx="98.416" cy="947.163" rx="44.194" ry="6.061" fill="none" stroke="red" stroke-dashoffset=".253"/><path d="M136.125 950.344l22.687 6.072" fill="none" stroke="red"/><text style="line-height:125%;-inkscape-font-specification:Arial" x="159.53" y="959.285" font-size="7.5" font-family="Arial" letter-spacing="0" word-spacing="0" fill="red"><tspan x="159.53" y="959.285" style="-inkscape-font-specification:Arial">If Needed</tspan></text></g></svg>