<svg xmlns="http://www.w3.org/2000/svg" width="800" height="1200" viewBox="0 0 800.00001 1200"><path fill="#ececec" d="M0 0h800v1200H0z"/><g transform="translate(18.98 67.96)"><path fill="#fff" stroke="#000" stroke-width="3" stroke-dashoffset=".253" d="M38.19 835.032h297.903v197.902H38.19z"/><path d="M40.292 1023.483h293.702" fill="none" stroke="#000" stroke-width="1.132"/><path fill="none" stroke="#000" stroke-width=".779" stroke-dashoffset=".253" d="M135.708 843.92h102.87v15.927h-102.87z"/><text transform="matrix(1.00558 0 0 .99445 88.57 7.887)" y="853.918" x="76.972" style="line-height:125%" font-size="14.329" font-family="sans-serif" letter-spacing="0" word-spacing="0"><tspan y="853.918" x="76.972">LOGO</tspan></text><path fill="#ccc" stroke="#000" stroke-width=".593" stroke-dashoffset=".253" d="M126.872 891.82h119.315v19.17H126.872zM126.94 918.73h119.314v19.17H126.94z"/><text y="864.243" x="37.41" style="line-height:125%" font-size="6.087" font-family="sans-serif" letter-spacing="0" word-spacing="0" transform="translate(88.57 21.62)"><tspan y="864.243" x="37.41">Recent Questions</tspan></text><text y="884.01" x="84.838" style="line-height:125%;-inkscape-font-specification:'Segoe Print'" font-size="12.765" font-family="Segoe Print" letter-spacing="0" word-spacing="0" fill="red" stroke-width="1.568" transform="translate(88.57 21.62)"><tspan y="884.01" x="84.838" style="-inkscape-font-specification:'Arial Rounded MT Bold, '" font-family="Arial Rounded MT Bold">Q #1</tspan></text><text y="910.92" x="84.905" style="line-height:125%;-inkscape-font-specification:'Segoe Print'" font-size="12.765" font-family="Segoe Print" letter-spacing="0" word-spacing="0" fill="red" stroke-width="1.568" transform="translate(88.57 21.62)"><tspan y="910.92" x="84.905" style="-inkscape-font-specification:'Arial Rounded MT Bold, '" font-family="Arial Rounded MT Bold">Q #2</tspan></text><path d="M38.302 877.09H334.91" fill="none" stroke="#000" stroke-width="1.908"/><path fill="#ccc" stroke="#000" stroke-width=".593" stroke-dashoffset=".253" d="M126.87 944.514h119.316v19.172H126.87zM126.938 971.424h119.315v19.172H126.938z"/><text style="line-height:125%;-inkscape-font-specification:'Segoe Print'" x="84.838" y="936.706" font-size="12.765" font-family="Segoe Print" letter-spacing="0" word-spacing="0" fill="red" stroke-width="1.568" transform="translate(88.57 21.62)"><tspan style="-inkscape-font-specification:'Arial Rounded MT Bold, '" x="84.838" y="936.706" font-family="Arial Rounded MT Bold">Q #3</tspan></text><text style="line-height:125%;-inkscape-font-specification:'Segoe Print'" x="84.905" y="963.615" font-size="12.765" font-family="Segoe Print" letter-spacing="0" word-spacing="0" fill="red" stroke-width="1.568" transform="translate(88.57 21.62)"><tspan style="-inkscape-font-specification:'Arial Rounded MT Bold, '" x="84.905" y="963.615" font-family="Arial Rounded MT Bold">Q #4</tspan></text><path fill="#ccc" stroke="#000" stroke-width=".581" stroke-dashoffset=".253" d="M126.932 997.765H246.26v18.4H126.93z"/><text y="989.963" x="84.905" style="line-height:125%;-inkscape-font-specification:'Segoe Print'" font-size="12.765" font-family="Segoe Print" letter-spacing="0" word-spacing="0" fill="red" stroke-width="1.568" transform="translate(88.57 21.62)"><tspan y="989.963" x="84.905" style="-inkscape-font-specification:'Arial Rounded MT Bold, '" font-family="Arial Rounded MT Bold">Q #5</tspan></text><path fill="#fff" stroke="#000" stroke-width="3" stroke-dashoffset=".253" d="M38.19 575.032h297.903v197.902H38.19z"/><path fill="none" stroke="#000" stroke-width=".779" stroke-dashoffset=".253" d="M135.708 583.92h102.87v15.927h-102.87z"/><text transform="matrix(1.00558 0 0 .99445 88.57 -252.113)" y="853.918" x="76.972" style="line-height:125%" font-size="14.329" font-family="sans-serif" letter-spacing="0" word-spacing="0"><tspan y="853.918" x="76.972">LOGO</tspan></text><path d="M40.292 763.483h293.702" fill="none" stroke="#000" stroke-width="1.132"/><path d="M81.882 618.612H292.24" fill="none" stroke="#000"/><path fill="#e6e6e6" stroke="#000" stroke-width="1.741" stroke-dashoffset=".253" d="M38.014 617.007h297.9v66.265h-297.9z"/><path fill="#fff" stroke="#000" stroke-width=".468" stroke-dashoffset=".253" d="M154 662.075h65.214v11.704H154z"/><text y="947.58" x="177.967" style="line-height:125%" font-size="10.038" font-family="sans-serif" letter-spacing="0" word-spacing="0" transform="translate(-1.69 -276.004)"><tspan y="947.58" x="177.967">ASK</tspan></text><path fill="#ccc" stroke="#000" stroke-width=".54" stroke-dashoffset=".253" d="M131.796 697.98H240.48v17.465H131.795zM131.857 722.492H240.54v17.464H131.857z"/><text style="line-height:125%" x="42.414" y="930.935" font-size="5.544" font-family="sans-serif" letter-spacing="0" word-spacing="0" transform="translate(88.57 -238.38)"><tspan x="42.414" y="930.935">Recent Questions</tspan></text><text style="line-height:125%;-inkscape-font-specification:'Segoe Print'" x="63.935" y="882.729" font-size="11.627" font-family="Segoe Print" letter-spacing="0" word-spacing="0" fill="red" stroke-width="1.568" transform="translate(88.57 -238.38)"><tspan style="-inkscape-font-specification:'Arial Rounded MT Bold, '" x="63.935" y="882.729" font-family="Arial Rounded MT Bold">Background</tspan></text><text style="line-height:125%;-inkscape-font-specification:'Segoe Print'" x="85.615" y="948.941" font-size="11.627" font-family="Segoe Print" letter-spacing="0" word-spacing="0" fill="red" stroke-width="1.568" transform="translate(88.57 -238.38)"><tspan style="-inkscape-font-specification:'Arial Rounded MT Bold, '" x="85.615" y="948.941" font-family="Arial Rounded MT Bold">Q #1</tspan></text><text style="line-height:125%;-inkscape-font-specification:'Segoe Print'" x="85.677" y="973.452" font-size="11.627" font-family="Segoe Print" letter-spacing="0" word-spacing="0" fill="red" stroke-width="1.568" transform="translate(88.57 -238.38)"><tspan style="-inkscape-font-specification:'Arial Rounded MT Bold, '" x="85.677" y="973.452" font-family="Arial Rounded MT Bold">Q #2</tspan></text><path fill="#ccc" stroke="#000" stroke-width=".529" stroke-dashoffset=".253" d="M131.85 746.486h108.695v16.76H131.85z"/><text y="997.452" x="85.677" style="line-height:125%;-inkscape-font-specification:'Segoe Print'" font-size="11.627" font-family="Segoe Print" letter-spacing="0" word-spacing="0" fill="red" stroke-width="1.568" transform="translate(88.57 -238.38)"><tspan y="997.452" x="85.677" style="-inkscape-font-specification:'Arial Rounded MT Bold, '" font-family="Arial Rounded MT Bold">Q #3</tspan></text><text style="line-height:125%" x="22.548" y="37.822" font-size="11.044" font-family="sans-serif" letter-spacing="0" word-spacing="0"><tspan x="22.548" y="37.822">1. LANDING PAGE</tspan></text><g transform="translate(88.57 -759.286)"><path fill="#fff" stroke="#000" stroke-width="3" stroke-dashoffset=".253" d="M-50.38 813.41h297.902v197.903H-50.38z"/><path fill="none" stroke="#000" stroke-width="1.259" stroke-dashoffset=".253" d="M-22.505 857.203h242.153v81.973H-22.505z"/><g transform="translate(-91.786 747.37)" fill="none" stroke="#000" stroke-dashoffset=".253"><ellipse ry="1.964" rx="3.929" cy="200.041" cx="170.357"/><ellipse cx="190.357" cy="200.041" rx="3.929" ry="1.964"/><ellipse ry="1.964" rx="3.929" cy="200.041" cx="210.357"/></g><path fill="none" stroke="#000" stroke-dashoffset=".253" d="M61.066 960.035h75.012v21.89H61.066z"/><path d="M-48.28 1001.862h293.702" fill="none" stroke="#000" stroke-width="1.132"/><path fill="none" stroke="#000" stroke-width=".779" stroke-dashoffset=".253" d="M47.137 822.3h102.87v15.926H47.137z"/><text transform="matrix(1.00558 0 0 .99445 0 -13.734)" y="853.918" x="76.972" style="line-height:125%" font-size="14.329" font-family="sans-serif" letter-spacing="0" word-spacing="0"><tspan y="853.918" x="76.972">LOGO</tspan></text><text y="974.93" x="80.743" style="line-height:125%" font-size="10.867" font-family="sans-serif" letter-spacing="0" word-spacing="0"><tspan y="974.93" x="80.743">LOGIN</tspan></text><text style="line-height:125%;-inkscape-font-specification:'Arial Bold'" x="18.733" y="906.891" transform="scale(1.00558 .99445)" font-weight="bold" font-size="14.329" font-family="Arial" letter-spacing="0" word-spacing="0" fill="red"><tspan x="18.733" y="906.891" style="-inkscape-font-specification:'Arial Bold'">Explanation about arlin</tspan></text><ellipse cx="98.416" cy="947.163" rx="44.194" ry="6.061" fill="none" stroke="red" stroke-dashoffset=".253"/><path d="M136.125 950.344l22.687 6.072" fill="none" stroke="red"/><text style="line-height:125%;-inkscape-font-specification:Arial" x="159.53" y="959.285" font-size="7.5" font-family="Arial" letter-spacing="0" word-spacing="0" fill="red"><tspan x="159.53" y="959.285" style="-inkscape-font-specification:Arial">If Needed</tspan></text></g><g><text y="315.417" x="22.548" style="line-height:125%" font-size="11.044" font-family="sans-serif" letter-spacing="0" word-spacing="0" transform="translate(0 -17.38)"><tspan y="315.417" x="22.548">2. Click Login - LOGIN</tspan></text><path fill="#fff" stroke="#000" stroke-width="3" stroke-dashoffset=".253" d="M38.19 315.032h297.903v197.902H38.19z"/><path fill="none" stroke="#000" stroke-width="1.259" stroke-dashoffset=".253" d="M66.066 358.824H308.22v81.973H66.065z"/><g transform="translate(-3.214 248.99)" fill="none" stroke="#000" stroke-dashoffset=".253"><ellipse cx="170.357" cy="200.041" rx="3.929" ry="1.964"/><ellipse ry="1.964" rx="3.929" cy="200.041" cx="190.357"/><ellipse cx="210.357" cy="200.041" rx="3.929" ry="1.964"/></g><path fill="none" stroke="#000" stroke-dashoffset=".253" d="M149.637 461.656h75.012v21.89h-75.013z"/><path d="M40.292 503.483h293.702" fill="none" stroke="#000" stroke-width="1.132"/><path fill="none" stroke="#000" stroke-width=".779" stroke-dashoffset=".253" d="M135.708 323.92h102.87v15.927h-102.87z"/><text style="line-height:125%" x="76.972" y="853.918" transform="matrix(1.00558 0 0 .99445 88.57 -512.113)" font-size="14.329" font-family="sans-serif" letter-spacing="0" word-spacing="0"><tspan x="76.972" y="853.918">LOGO</tspan></text><text style="line-height:125%" x="80.743" y="974.93" font-size="10.867" font-family="sans-serif" letter-spacing="0" word-spacing="0" transform="translate(88.57 -498.38)"><tspan x="80.743" y="974.93">LOGIN</tspan></text><g><path opacity=".488" fill="#333" d="M37.143 313.983h300v200h-300z"/><path fill="#fff" stroke="#000" stroke-width="1.28" stroke-dashoffset=".253" d="M115.357 386.72h143.57v74.3h-143.57z"/><path fill="#fff" stroke="#000" stroke-width=".36" stroke-dashoffset=".253" d="M173.185 414.406h77.347v10.927h-77.347z"/><text style="line-height:125%" x="125.25" y="423.903" font-size="8.805" font-family="sans-serif" letter-spacing="0" word-spacing="0" transform="translate(-2.438 -2.06)"><tspan x="125.25" y="423.903">username</tspan></text><path fill="#fff" stroke="#000" stroke-width=".36" stroke-dashoffset=".253" d="M162.058 441.368h50.17v9.004h-50.17z"/><text style="line-height:125%" x="-219.59" y="1047.603" font-size="6.448" font-family="sans-serif" letter-spacing="0" word-spacing="0" transform="translate(396.155 -599.39)"><tspan x="-219.59" y="1047.603">LOGIN</tspan></text></g></g><text y="558.038" x="22.548" style="line-height:125%" font-size="11.044" font-family="sans-serif" letter-spacing="0" word-spacing="0"><tspan y="558.038" x="22.548">3. Login successful - MAIN PAGE</tspan></text><text style="line-height:125%" x="22.548" y="818.038" font-size="11.044" font-family="sans-serif" letter-spacing="0" word-spacing="0"><tspan x="22.548" y="818.038">4. Scroll down - MAIN PAGE</tspan></text><g><path fill="#fff" stroke="#000" stroke-width="3" stroke-dashoffset=".253" d="M-50.38 813.41h297.902v197.903H-50.38z" transform="matrix(.997 0 0 .9955 458.867 -290.282)"/><path fill="none" stroke="#000" stroke-width=".361" stroke-dashoffset=".253" d="M447.818 508.626h75.09v14.824h-75.09z" transform="matrix(.997 0 0 .9955 73.235 172.03)"/><text style="line-height:125%" x="463.364" y="519.978" font-size="10.867" font-family="sans-serif" letter-spacing="0" word-spacing="0" transform="matrix(.997 0 0 .9955 73.235 172.03)"><tspan x="463.364" y="519.978">SUBMIT</tspan></text><path d="M-48.28 1001.862h293.702" fill="none" stroke="#000" stroke-width="1.132" transform="matrix(.997 0 0 .9955 458.867 -290.282)"/><path fill="none" stroke="#000" stroke-width=".779" stroke-dashoffset=".253" d="M47.137 836.034h102.87v15.926H47.137z" transform="matrix(.997 0 0 .9955 458.867 -303.954)"/><text transform="matrix(1.0026 0 0 .99 458.867 -303.954)" y="853.918" x="76.972" style="line-height:125%" font-size="14.329" font-family="sans-serif" letter-spacing="0" word-spacing="0"><tspan y="853.918" x="76.972">LOGO</tspan></text><path d="M-50.268 855.47H246.34" fill="none" stroke="#000" stroke-width="1.908" transform="matrix(.997 0 0 .9955 458.867 -290.282)"/><path d="M334.192 807.814l-5.41 2.35 5.098 2.562" fill="none" stroke="#000" stroke-width=".572" transform="matrix(.997 0 0 .9955 99.947 -226.572)"/><text y="811.521" x="336.663" style="line-height:125%" font-size="4.441" font-family="sans-serif" letter-spacing="0" word-spacing="0" transform="matrix(.997 0 0 .9955 99.947 -226.572)"><tspan y="811.521" x="336.663">back</tspan></text><text y="425.995" x="514.77" style="line-height:125%" font-size="7.5" font-family="sans-serif" letter-spacing="0" word-spacing="0" transform="matrix(.997 0 0 .9955 23.756 158.09)"><tspan y="425.995" x="514.77">QUESTION</tspan></text><path d="M515.714 427.362h39.077" fill="none" stroke="#000" stroke-width=".392" transform="matrix(.997 0 0 .9955 23.756 158.09)"/><path fill="none" stroke="#000" stroke-width=".492" stroke-dashoffset=".253" d="M-5.904 884.67h208.952v24.21H-5.904zM-5.84 929.232h208.824v36.226H-5.84z" transform="matrix(.997 0 0 .9955 458.867 -290.282)"/><g><text style="line-height:125%" x="494.77" y="425.995" font-size="7.5" font-family="sans-serif" letter-spacing="0" word-spacing="0" transform="matrix(.997 0 0 .9955 35.403 202.648)"><tspan x="494.77" y="425.995">YOUR ANSWER</tspan></text><path d="M495.714 427.362h55.618" fill="none" stroke="#000" stroke-width=".468" transform="matrix(.997 0 0 .9955 35.403 202.648)"/></g></g><g><path fill="#fff" stroke="#000" stroke-width="3" stroke-dashoffset=".253" d="M-50.38 813.41h297.902v197.903H-50.38z" transform="matrix(.997 0 0 .9955 458.867 -550.282)"/><path d="M-48.28 1001.862h293.702" fill="none" stroke="#000" stroke-width="1.132" transform="matrix(.997 0 0 .9955 458.867 -550.282)"/><path fill="none" stroke="#000" stroke-width=".779" stroke-dashoffset=".253" d="M47.137 836.034h102.87v15.926H47.137z" transform="matrix(.997 0 0 .9955 458.867 -563.954)"/><text transform="matrix(1.0026 0 0 .99 458.867 -563.954)" y="853.918" x="76.972" style="line-height:125%" font-size="14.329" font-family="sans-serif" letter-spacing="0" word-spacing="0"><tspan y="853.918" x="76.972">LOGO</tspan></text><path d="M-50.268 855.47H246.34" fill="none" stroke="#000" stroke-width="1.908" transform="matrix(.997 0 0 .9955 458.867 -550.282)"/><text y="876.327" x="65.045" style="line-height:125%" font-size="7.5" font-family="sans-serif" letter-spacing="0" word-spacing="0" transform="matrix(.997 0 0 .9955 458.867 -550.282)"><tspan y="876.327" x="65.045">ADD A QUESTION</tspan></text><path d="M66.786 877.695h63.57" fill="none" stroke="#000" stroke-width=".5" transform="matrix(.997 0 0 .9955 458.867 -550.282)"/><path fill="none" stroke="#000" stroke-width=".361" stroke-dashoffset=".253" d="M443.818 208.626h75.09v14.824h-75.09z" transform="matrix(.997 0 0 .9955 77.223 210.618)"/><text style="line-height:125%" x="470.181" y="219.988" font-size="10.867" font-family="sans-serif" letter-spacing="0" word-spacing="0" transform="matrix(.997 0 0 .9955 77.223 210.618)"><tspan x="470.181" y="219.988">ASK</tspan></text><path fill="none" stroke="#000" stroke-width=".416" stroke-dashoffset=".253" d="M4.604 894.36h187.934v11.512H4.604z" transform="matrix(.997 0 0 .9955 458.867 -550.282)"/><path fill="none" stroke="#000" stroke-width=".457" stroke-dashoffset=".253" d="M4.625 918.558h187.893v44.397H4.625z" transform="matrix(.997 0 0 .9955 458.867 -550.282)"/><g font-size="4.441" font-family="sans-serif" letter-spacing="0" word-spacing="0"><text style="line-height:125%" x="19.158" y="891.988" transform="matrix(.997 0 0 .9955 444.15 -550.282)"><tspan x="19.158" y="891.988">TITLE</tspan></text><text y="915.988" x="19.158" style="line-height:125%" transform="matrix(.997 0 0 .9955 444.15 -550.282)"><tspan y="915.988" x="19.158">POST DESCRIPTION</tspan></text></g><g><path d="M334.192 807.814l-5.41 2.35 5.098 2.562" fill="none" stroke="#000" stroke-width=".572" transform="matrix(.997 0 0 .9955 99.947 -486.572)"/><text y="811.521" x="336.663" style="line-height:125%" font-size="4.441" font-family="sans-serif" letter-spacing="0" word-spacing="0" transform="matrix(.997 0 0 .9955 99.947 -486.572)"><tspan y="811.521" x="336.663">back</tspan></text></g></g><text y="242.038" x="392.548" style="line-height:125%" font-size="11.044" font-family="sans-serif" letter-spacing="0" word-spacing="0"><tspan y="242.038" x="392.548">5. Click ASK button on Main Page - POSTING QUESTION PAGE</tspan></text><text style="line-height:125%" x="392.548" y="502.038" font-size="11.044" font-family="sans-serif" letter-spacing="0" word-spacing="0"><tspan x="392.548" y="502.038">6. Click QBox on Main Page - ANSWER QUESTION PAGE</tspan></text><text y="762.038" x="392.548" style="line-height:125%" font-size="11.044" font-family="sans-serif" letter-spacing="0" word-spacing="0"><tspan y="762.038" x="392.548">7. Question Box on Main Page</tspan></text><g><path fill="#fff" stroke="#000" stroke-width="1.279" stroke-dashoffset=".253" d="M419.06 778.623h280.1v38.037h-280.1z"/><path fill="#ececec" stroke="#000" stroke-width="1.168" stroke-dashoffset=".253" d="M415.07 778.567h35.027v38.148H415.07z"/><path fill="#ececec" stroke="#000" stroke-width="1.168" stroke-dashoffset=".253" d="M449.76 778.567h35.026v38.148H449.76z"/><text y="703.968" x="252.407" style="line-height:125%" font-size="16.25" font-family="sans-serif" letter-spacing="0" word-spacing="0" transform="translate(175.305 95.28)"><tspan y="703.968" x="252.407">0</tspan></text><text y="715.575" x="243.601" style="line-height:125%" font-size="7.5" font-family="sans-serif" letter-spacing="0" word-spacing="0" transform="translate(175.305 95.28)"><tspan y="715.575" x="243.601">asnwer</tspan></text><text style="line-height:125%;text-align:center" x="291.777" y="695.575" font-size="7.5" font-family="sans-serif" letter-spacing="0" word-spacing="0" text-anchor="middle" transform="translate(175.305 95.28)"><tspan x="291.777" y="695.575">asked</tspan><tspan x="291.777" y="704.95">by</tspan><tspan x="291.777" y="714.325">ruth</tspan></text><text transform="matrix(.874 0 0 1.1443 175.305 95.28)" y="616.594" x="430.703" style="line-height:125%" font-size="7.068" font-family="sans-serif" letter-spacing="0" word-spacing="0"><tspan y="616.594" x="430.703" font-size="10">Can I ask you a question?</tspan></text><path fill="#ececec" stroke="#000" stroke-width="1.168" stroke-dashoffset=".253" d="M483.954 778.568h35.026v38.148h-35.026z"/><text y="699.665" x="326.158" style="line-height:125%;text-align:center" font-size="7.5" font-family="sans-serif" letter-spacing="0" word-spacing="0" text-anchor="middle" transform="translate(175.305 95.28)"><tspan y="699.665" x="326.158">Time</tspan><tspan y="709.04" x="326.158">stamp</tspan></text></g><path d="M305 260.934v40.714" fill="red" fill-rule="evenodd" stroke="red" stroke-width="2"/><path d="M297.165 293.416l7.857 9.643 9.285-8.93" fill="red" fill-rule="evenodd"/><path d="M305 520.934v40.714" fill="red" fill-rule="evenodd" stroke="red" stroke-width="2"/><path d="M296.875 553.88l7.857 9.643 9.286-8.93" fill="red" fill-rule="evenodd"/><path d="M305 780.934v40.714" fill="red" fill-rule="evenodd" stroke="red" stroke-width="2"/><path d="M296.786 813.648l7.857 9.643 9.286-8.928" fill="red" fill-rule="evenodd"/><path d="M231.07 669.505h133.216V343.79h31.428M290.924 900.84h92.934V792.752h30.81" fill="none" stroke="red" stroke-width="2"/><path d="M241.426 706.89h143.442V597.794h14.142" fill="none" stroke="red" stroke-width="2"/><ellipse cx="188.571" cy="900.699" rx="101.827" ry="16.46" fill="none" stroke="red" stroke-width="1.916" stroke-dashoffset=".253"/><g transform="translate(-32.5 62.5)" fill="none" stroke="red"><ellipse ry="6.061" rx="5.935" cy="810.178" cx="402.42" stroke-width="2" stroke-dashoffset=".253"/><path d="M398.505 815.734l-9.723 9.723 1.126.65z"/></g><ellipse cx="186.429" cy="668.255" rx="44.286" ry="16.25" fill="none" stroke="red" stroke-width="2" stroke-dashoffset=".253"/><path d="M394.433 605.14l9.643-7.857-8.93-9.285M391.158 350.796l9.643-7.857-8.927-9.286" fill="red" fill-rule="evenodd"/></g><text y="-85.449" x="247.761" style="line-height:125%" font-size="38.832" font-family="sans-serif" letter-spacing="0" word-spacing="0" transform="translate(0 147.638)"><tspan y="-85.449" x="247.761">Wireframe Flow</tspan></text></svg>