<svg xmlns="http://www.w3.org/2000/svg" width="300" height="200" viewBox="0 0 300.00001 199.99999"><path fill="#fff" stroke="#000" stroke-width="3" stroke-dashoffset=".253" d="M-50.38 813.41h297.902v197.903H-50.38z" transform="matrix(.997 0 0 .9955 51.723 -807.815)"/><path fill="none" stroke="#000" stroke-width=".361" stroke-dashoffset=".253" d="M447.818 508.626h75.09v14.824h-75.09z" transform="matrix(.997 0 0 .9955 -333.91 -345.504)"/><text style="line-height:125%" x="463.364" y="519.978" font-size="10.867" font-family="sans-serif" letter-spacing="0" word-spacing="0" transform="matrix(.997 0 0 .9955 -333.91 -345.504)"><tspan x="463.364" y="519.978">SUBMIT</tspan></text><path d="M-48.28 1001.862h293.702" fill="none" stroke="#000" stroke-width="1.132" transform="matrix(.997 0 0 .9955 51.723 -807.815)"/><path fill="none" stroke="#000" stroke-width=".779" stroke-dashoffset=".253" d="M47.137 836.034h102.87v15.926H47.137z" transform="matrix(.997 0 0 .9955 51.723 -821.487)"/><text transform="matrix(1.0026 0 0 .99 51.723 -821.487)" y="853.918" x="76.972" style="line-height:125%" font-size="14.329" font-family="sans-serif" letter-spacing="0" word-spacing="0"><tspan y="853.918" x="76.972">LOGO</tspan></text><path d="M-50.268 855.47H246.34" fill="none" stroke="#000" stroke-width="1.908" transform="matrix(.997 0 0 .9955 51.723 -807.815)"/><path d="M334.192 807.814l-5.41 2.35 5.098 2.562" fill="none" stroke="#000" stroke-width=".572" transform="matrix(.997 0 0 .9955 -307.197 -744.105)"/><text y="811.521" x="336.663" style="line-height:125%" font-size="4.441" font-family="sans-serif" letter-spacing="0" word-spacing="0" transform="matrix(.997 0 0 .9955 -307.197 -744.105)"><tspan y="811.521" x="336.663">back</tspan></text><text y="425.995" x="514.77" style="line-height:125%" font-size="7.5" font-family="sans-serif" letter-spacing="0" word-spacing="0" transform="matrix(.997 0 0 .9955 -383.388 -359.442)"><tspan y="425.995" x="514.77">QUESTION</tspan></text><path d="M515.714 427.362h39.077" fill="none" stroke="#000" stroke-width=".392" transform="matrix(.997 0 0 .9955 -383.388 -359.442)"/><path fill="none" stroke="#000" stroke-width=".492" stroke-dashoffset=".253" d="M-5.904 884.67h208.952v24.21H-5.904zM-5.84 929.232h208.824v36.226H-5.84z" transform="matrix(.997 0 0 .9955 51.723 -807.815)"/><g><text style="line-height:125%" x="494.77" y="425.995" font-size="7.5" font-family="sans-serif" letter-spacing="0" word-spacing="0" transform="matrix(.997 0 0 .9955 -371.74 -314.885)"><tspan x="494.77" y="425.995">YOUR ANSWER</tspan></text><path d="M495.714 427.362h55.618" fill="none" stroke="#000" stroke-width=".468" transform="matrix(.997 0 0 .9955 -371.74 -314.885)"/></g></svg>