<svg xmlns="http://www.w3.org/2000/svg" width="300" height="200" viewBox="0 0 300 200"><g transform="matrix(.997 0 0 .9955 51.724 -808.265)"><path fill="#fff" stroke="#000" stroke-dashoffset=".253" stroke-width="3" d="M-50.38 813.41h297.902v197.903H-50.38z"/><path fill="none" stroke="#000" stroke-dashoffset=".253" stroke-width="1.259" d="M-22.505 857.203h242.153v81.973H-22.505z"/><g fill="none" stroke="#000" stroke-dashoffset=".253" transform="translate(-91.786 747.37)"><ellipse cx="170.357" cy="200.041" rx="3.929" ry="1.964"/><ellipse cx="190.357" cy="200.041" rx="3.929" ry="1.964"/><ellipse cx="210.357" cy="200.041" rx="3.929" ry="1.964"/></g><path fill="none" stroke="#000" stroke-dashoffset=".253" d="M61.066 960.035h75.012v21.89H61.066z"/><path fill="none" stroke="#000" stroke-width="1.132" d="M-48.28 1001.862h293.702"/><path fill="none" stroke="#000" stroke-dashoffset=".253" stroke-width=".779" d="M47.137 822.3h102.87v15.926H47.137z"/><text x="76.972" y="853.918" font-family="sans-serif" font-size="14.329" letter-spacing="0" transform="matrix(1.00558 0 0 .99445 0 -13.734)" word-spacing="0" style="line-height:125%"><tspan x="76.972" y="853.918">LOGO</tspan></text><text x="80.743" y="974.93" font-family="sans-serif" font-size="10.867" letter-spacing="0" word-spacing="0" style="line-height:125%"><tspan x="80.743" y="974.93">LOGIN</tspan></text><text style="line-height:125%;-inkscape-font-specification:'Arial Bold'" x="18.733" y="906.891" fill="red" font-family="Arial" font-size="14.329" font-weight="bold" letter-spacing="0" transform="scale(1.00558 .99445)" word-spacing="0"><tspan x="18.733" y="906.891" style="-inkscape-font-specification:'Arial Bold'">Explanation about arlin</tspan></text><ellipse cx="98.416" cy="947.163" fill="none" stroke="red" stroke-dashoffset=".253" rx="44.194" ry="6.061"/><path fill="none" stroke="red" d="M136.125 950.344l22.687 6.072"/><text style="line-height:125%;-inkscape-font-specification:Arial" x="159.53" y="959.285" fill="red" font-family="Arial" font-size="7.5" letter-spacing="0" word-spacing="0"><tspan x="159.53" y="959.285" style="-inkscape-font-specification:Arial">If Needed</tspan></text></g></svg>