<svg xmlns="http://www.w3.org/2000/svg" width="300" height="200" viewBox="0 0 300.00001 199.99999"><path fill="#fff" stroke="#000" stroke-width="1.279" stroke-dashoffset=".253" d="M11.916 80.982h280.1v38.037h-280.1z"/><path fill="#ececec" stroke="#000" stroke-width="1.168" stroke-dashoffset=".253" d="M7.928 80.926h35.026v38.148H7.928z"/><path fill="#ececec" stroke="#000" stroke-width="1.168" stroke-dashoffset=".253" d="M42.617 80.926h35.026v38.148H42.617z"/><text y="703.968" x="252.407" style="line-height:125%" font-size="16.25" font-family="sans-serif" letter-spacing="0" word-spacing="0" transform="translate(-231.838 -602.362)"><tspan y="703.968" x="252.407">0</tspan></text><text y="715.575" x="243.601" style="line-height:125%" font-size="7.5" font-family="sans-serif" letter-spacing="0" word-spacing="0" transform="translate(-231.838 -602.362)"><tspan y="715.575" x="243.601">asnwer</tspan></text><text style="line-height:125%;text-align:center" x="291.777" y="695.575" font-size="7.5" font-family="sans-serif" letter-spacing="0" word-spacing="0" text-anchor="middle" transform="translate(-231.838 -602.362)"><tspan x="291.777" y="695.575">asked</tspan><tspan x="291.777" y="704.95">by</tspan><tspan x="291.777" y="714.325">ruth</tspan></text><text transform="matrix(.8739 0 0 1.14428 -231.838 -602.362)" y="616.594" x="430.703" style="line-height:125%" font-size="7.068" font-family="sans-serif" letter-spacing="0" word-spacing="0"><tspan y="616.594" x="430.703" font-size="10">Can I ask you a question?</tspan></text><path fill="#ececec" stroke="#000" stroke-width="1.168" stroke-dashoffset=".253" d="M76.81 80.926h35.027v38.148H76.81z"/><text y="699.665" x="326.158" style="line-height:125%;text-align:center" font-size="7.5" font-family="sans-serif" letter-spacing="0" word-spacing="0" text-anchor="middle" transform="translate(-231.838 -602.362)"><tspan y="699.665" x="326.158">Time</tspan><tspan y="709.04" x="326.158">stamp</tspan></text></svg>