<svg xmlns="http://www.w3.org/2000/svg" width="300" height="200" viewBox="0 0 300 200"><path fill="#fff" stroke="#000" stroke-dashoffset=".253" stroke-width="3" d="M-50.38 813.41h297.902v197.903H-50.38z" transform="matrix(.997 0 0 .9955 51.724 -808.265)"/><path fill="none" stroke="#000" stroke-dashoffset=".253" stroke-width=".779" d="M47.137 836.034h102.87v15.926H47.137z" transform="matrix(.997 0 0 .9955 51.724 -821.937)"/><text x="76.972" y="853.918" font-family="sans-serif" font-size="14.329" letter-spacing="0" transform="matrix(1.00257 0 0 .98998 51.724 -821.937)" word-spacing="0" style="line-height:125%"><tspan x="76.972" y="853.918">LOGO</tspan></text><path fill="none" stroke="#000" stroke-width="1.132" d="M-48.28 1001.862h293.702" transform="matrix(.997 0 0 .9955 51.724 -808.265)"/><g><path fill="none" stroke="#000" d="M-6.69 856.99H203.67" transform="matrix(.997 0 0 .9955 51.724 -808.265)"/><path fill="#e6e6e6" stroke="#000" stroke-dashoffset=".253" stroke-width="1.741" d="M-50.557 855.386h297.9v66.265h-297.9z" transform="matrix(.997 0 0 .9955 51.724 -808.265)"/><path fill="#fff" stroke="#000" stroke-dashoffset=".253" stroke-width=".468" d="M155.69 938.08h65.213v11.703H155.69z" transform="matrix(.997 0 0 .9955 -38.266 -845.72)"/><text x="177.967" y="947.58" font-family="sans-serif" font-size="10.038" letter-spacing="0" transform="matrix(.997 0 0 .9955 -38.266 -845.72)" word-spacing="0" style="line-height:125%"><tspan x="177.967" y="947.58">ASK</tspan></text><path fill="#ccc" stroke="#000" stroke-dashoffset=".253" stroke-width=".54" d="M43.225 936.36h108.683v17.464H43.225zM43.286 960.87H151.97v17.465H43.285z" transform="matrix(.997 0 0 .9955 51.724 -808.265)"/><text style="line-height:125%" x="42.414" y="930.935" font-family="sans-serif" font-size="5.544" letter-spacing="0" transform="matrix(.997 0 0 .9955 51.724 -808.265)" word-spacing="0"><tspan x="42.414" y="930.935">Recent Questions</tspan></text><text style="line-height:125%;-inkscape-font-specification:'Segoe Print'" x="63.935" y="882.729" fill="red" stroke-width="1.568" font-family="Segoe Print" font-size="11.627" letter-spacing="0" transform="matrix(.997 0 0 .9955 51.724 -808.265)" word-spacing="0"><tspan style="-inkscape-font-specification:'Arial Rounded MT Bold, '" x="63.935" y="882.729" font-family="Arial Rounded MT Bold">Background</tspan></text><text style="line-height:125%;-inkscape-font-specification:'Segoe Print'" x="85.615" y="948.941" fill="red" stroke-width="1.568" font-family="Segoe Print" font-size="11.627" letter-spacing="0" transform="matrix(.997 0 0 .9955 51.724 -808.265)" word-spacing="0"><tspan style="-inkscape-font-specification:'Arial Rounded MT Bold, '" x="85.615" y="948.941" font-family="Arial Rounded MT Bold">Q #1</tspan></text><text style="line-height:125%;-inkscape-font-specification:'Segoe Print'" x="85.677" y="973.452" fill="red" stroke-width="1.568" font-family="Segoe Print" font-size="11.627" letter-spacing="0" transform="matrix(.997 0 0 .9955 51.724 -808.265)" word-spacing="0"><tspan style="-inkscape-font-specification:'Arial Rounded MT Bold, '" x="85.677" y="973.452" font-family="Arial Rounded MT Bold">Q #2</tspan></text><path fill="#ccc" stroke="#000" stroke-dashoffset=".253" stroke-width=".529" d="M43.28 984.866h108.695v16.76H43.28z" transform="matrix(.997 0 0 .9955 51.724 -808.265)"/><text x="85.677" y="997.452" fill="red" stroke-width="1.568" font-family="Segoe Print" font-size="11.627" letter-spacing="0" transform="matrix(.997 0 0 .9955 51.724 -808.265)" word-spacing="0" style="line-height:125%;-inkscape-font-specification:'Segoe Print'"><tspan x="85.677" y="997.452" font-family="Arial Rounded MT Bold" style="-inkscape-font-specification:'Arial Rounded MT Bold, '">Q #3</tspan></text></g></svg>