<svg xmlns="http://www.w3.org/2000/svg" width="300" height="200" viewBox="0 0 300 200"><path fill="#fff" stroke="#000" stroke-dashoffset=".253" stroke-width="1.279" d="M11.916 80.982h280.1v38.037h-280.1z"/><path fill="#ececec" stroke="#000" stroke-dashoffset=".253" stroke-width="1.168" d="M7.928 80.926h35.026v38.148H7.928z"/><path fill="#ececec" stroke="#000" stroke-dashoffset=".253" stroke-width="1.168" d="M42.617 80.926h35.026v38.148H42.617z"/><text x="252.407" y="703.968" font-family="sans-serif" font-size="16.25" letter-spacing="0" transform="translate(-231.838 -602.362)" word-spacing="0" style="line-height:125%"><tspan x="252.407" y="703.968">0</tspan></text><text x="243.601" y="715.575" font-family="sans-serif" font-size="7.5" letter-spacing="0" transform="translate(-231.838 -602.362)" word-spacing="0" style="line-height:125%"><tspan x="243.601" y="715.575">asnwer</tspan></text><text style="line-height:125%;text-align:center" x="291.777" y="695.575" font-family="sans-serif" font-size="7.5" letter-spacing="0" text-anchor="middle" transform="translate(-231.838 -602.362)" word-spacing="0"><tspan x="291.777" y="695.575">asked</tspan><tspan x="291.777" y="704.95">by</tspan><tspan x="291.777" y="714.325">ruth</tspan></text><text x="430.703" y="616.594" font-family="sans-serif" font-size="7.068" letter-spacing="0" transform="matrix(.8739 0 0 1.14428 -231.838 -602.362)" word-spacing="0" style="line-height:125%"><tspan x="430.703" y="616.594" font-size="10">Can I ask you a question?</tspan></text><path fill="#ececec" stroke="#000" stroke-dashoffset=".253" stroke-width="1.168" d="M76.81 80.926h35.027v38.148H76.81z"/><text x="326.158" y="699.665" font-family="sans-serif" font-size="7.5" letter-spacing="0" text-anchor="middle" transform="translate(-231.838 -602.362)" word-spacing="0" style="line-height:125%;text-align:center"><tspan x="326.158" y="699.665">Time</tspan><tspan x="326.158" y="709.04">stamp</tspan></text></svg>